<?xml version="1.0" standalone="no"?>
<!DOCTYPE svg PUBLIC "-//W3C//DTD SVG 1.1//EN" "http://www.w3.org/Graphics/SVG/1.1/DTD/svg11.dtd" >
<svg xmlns="http://www.w3.org/2000/svg">
<metadata></metadata>
<defs>
<font id="NeogreyMediumMedium" horiz-adv-x="1449" >
<font-face units-per-em="2048" ascent="1638" descent="-410" />
<missing-glyph horiz-adv-x="698" />
<glyph horiz-adv-x="0" />
<glyph horiz-adv-x="2048" />
<glyph unicode=" "  horiz-adv-x="698" />
<glyph unicode="&#x09;" horiz-adv-x="698" />
<glyph unicode="&#xa0;" horiz-adv-x="698" />
<glyph unicode="!" horiz-adv-x="370" d="M0 104v76q0 43 30 73t74 30q40 0 71.5 -30.5t31.5 -72.5v-76q0 -42 -31 -72t-72 -30q-44 0 -74 29.5t-30 72.5zM0 442v1047q0 43 30 72.5t74 29.5q41 0 72 -30t31 -72v-1047q0 -42 -31 -72t-72 -30q-44 0 -74 29.5t-30 72.5z" />
<glyph unicode="&#x22;" horiz-adv-x="636" d="M0 1243v293q0 41 29.5 70.5t72.5 29.5q42 0 73.5 -29.5t31.5 -70.5v-293q0 -43 -31.5 -73.5t-73.5 -30.5q-43 0 -72.5 30t-29.5 74zM258 1243v293q0 41 29.5 70.5t72.5 29.5q40 0 71.5 -29.5t31.5 -70.5v-293q0 -43 -31 -73.5t-72 -30.5q-43 0 -72.5 30t-29.5 74z" />
<glyph unicode="#" horiz-adv-x="1181" d="M0 545q0 42 30 73t72 31h86v217h-86q-43 0 -72.5 30.5t-29.5 74.5q0 40 30 71t72 31h86v86q0 41 31 72t74 31q40 0 71 -31.5t31 -71.5v-86h219v86q0 40 30.5 71.5t72.5 31.5q40 0 71 -31.5t31 -71.5v-86h86q41 0 72 -31t31 -71q0 -44 -30.5 -74.5t-72.5 -30.5h-86v-217 h86q41 0 72 -31.5t31 -72.5q0 -42 -30.5 -72.5t-72.5 -30.5h-86v-86q0 -42 -31 -72t-71 -30q-43 0 -73 29.5t-30 72.5v86h-219v-86q0 -42 -31 -72t-71 -30q-44 0 -74.5 29.5t-30.5 72.5v86h-86q-43 0 -72.5 30t-29.5 73zM395 649h219v217h-219v-217z" />
<glyph unicode="$" horiz-adv-x="1548" d="M6 104q0 43 30 72t73 29h950q57 0 97 41t40 98v213q0 57 -40 97t-97 40h-711q-141 0 -241.5 100.5t-100.5 241.5v213q0 141 100.5 241.5t241.5 100.5h275v99q0 44 30 74t74 30q41 0 71.5 -30.5t30.5 -73.5v-99h467q43 0 73 -29.5t30 -72.5q0 -42 -30.5 -72.5t-72.5 -30.5 h-948q-57 0 -97 -40t-40 -97v-213q0 -57 40 -97t97 -40h711q141 0 240.5 -100.5t99.5 -241.5v-213q0 -141 -99.5 -241.5t-240.5 -100.5h-230v-88q0 -42 -31 -72t-71 -30q-44 0 -74 29.5t-30 72.5v88h-514q-43 0 -73 29.5t-30 72.5z" />
<glyph unicode="%" horiz-adv-x="1918" d="M2 1128v121q0 141 100 241.5t242 100.5h125q141 0 241.5 -100.5t100.5 -241.5v-121q0 -141 -100.5 -241.5t-241.5 -100.5h-125q-142 0 -242 100.5t-100 241.5zM207 1128q0 -56 40 -95.5t97 -39.5h125q55 0 95 39.5t40 95.5v121q0 56 -40 96.5t-95 40.5h-125 q-57 0 -97 -40.5t-40 -96.5v-121zM324 102q0 34 16 58l874 1380q12 23 37 36t52 13q43 0 71.5 -31t28.5 -73q0 -32 -17 -55q-161 -253 -458 -724.5t-416 -658.5q-30 -47 -86 -47q-44 0 -73 30t-29 72zM928 344v119q0 142 100.5 243t241.5 101h125q143 0 243.5 -100.5 t100.5 -243.5v-119q0 -141 -101 -241.5t-243 -100.5h-125q-141 0 -241.5 100.5t-100.5 241.5zM1135 344q0 -57 39.5 -97t95.5 -40h125q57 0 97 40t40 97v119q0 57 -40 97t-97 40h-125q-56 0 -95.5 -40t-39.5 -97v-119z" />
<glyph unicode="&#x26;" horiz-adv-x="1421" d="M0 332v119q0 113 68 202t172 119q-35 101 -35 184q0 108 45 181q51 84 140 123.5t175 39.5h385q45 0 75 -29t30 -73q0 -43 -30.5 -73.5t-74.5 -30.5h-379q-75 -10 -110 -46.5t-35 -109.5q0 -48 12 -94l559 -568q15 24 15 56v119q0 43 30 73.5t74 30.5q43 0 74 -30.5 t31 -73.5v-119q0 -121 -74 -211l70 -68q30 -30 30 -76q0 -40 -32 -72t-72 -32q-43 0 -74 31l-102 106q-41 -12 -82 -12h-553q-137 0 -234.5 98t-97.5 236zM207 332q0 -53 36.5 -90t88.5 -37h442l-364 373h-78q-52 0 -88.5 -37t-36.5 -90v-119z" />
<glyph unicode="'" horiz-adv-x="380" d="M0 1241v293q0 42 30 71t74 29q40 0 71.5 -29.5t31.5 -70.5v-293q0 -43 -31 -73.5t-72 -30.5q-44 0 -74 30t-30 74z" />
<glyph unicode="(" horiz-adv-x="534" d="M0 -141v1730q0 41 30 71t72 30h158q42 0 71 -29.5t29 -71.5t-29 -71t-71 -29h-57v-1530h57q42 0 71 -29t29 -71q0 -43 -29 -73t-71 -30h-158q-43 0 -72.5 30t-29.5 73z" />
<glyph unicode=")" horiz-adv-x="534" d="M0 -141q0 41 29.5 70.5t70.5 29.5h60v1530h-60q-41 0 -70.5 29.5t-29.5 70.5t29.5 71t70.5 30h160q41 0 70.5 -30t29.5 -71v-1730q0 -43 -29.5 -73t-70.5 -30h-160q-41 0 -70.5 30t-29.5 73z" />
<glyph unicode="*" horiz-adv-x="952" d="M-33 1169q0 39 27.5 66t66.5 27h103l-72 71q-28 26 -29 65.5t27 67.5t67.5 27t65.5 -29q61 -60 74 -73v104q0 39 26.5 66.5t63.5 27.5q41 0 66.5 -27t25.5 -67v-104l74 73q26 28 65.5 29t67.5 -27t27 -67.5t-29 -65.5l-72 -71h103q39 0 66.5 -27t27.5 -66q0 -38 -27 -65 t-67 -27h-105l74 -73q28 -27 29.5 -65t-27.5 -69q-28 -26 -66.5 -26t-64.5 26l-76 76v-104q0 -41 -25.5 -66.5t-66.5 -25.5q-38 0 -64 26t-26 66v104l-76 -76q-26 -26 -64.5 -26t-66.5 26q-29 31 -27.5 69t29.5 65l74 73h-105q-40 0 -67 27t-27 65z" />
<glyph unicode="+" horiz-adv-x="1071" d="M0 596q0 43 29.5 71.5t72.5 28.5h246v248q0 39 30.5 68.5t70.5 29.5q41 0 70.5 -29t29.5 -69v-248h246q43 0 72.5 -28.5t29.5 -71.5q0 -41 -29.5 -70.5t-72.5 -29.5h-246v-248q0 -41 -29.5 -69.5t-70.5 -28.5q-40 0 -70.5 28.5t-30.5 69.5v248h-246q-43 0 -72.5 29.5 t-29.5 70.5z" />
<glyph unicode="," horiz-adv-x="460" d="M0 102q0 42 30 72.5t72 30.5h82q41 0 72 -29.5t31 -71.5v-161q0 -43 -31 -74t-72 -31q-44 0 -74 30.5t-30 74.5v59q-33 6 -56.5 35t-23.5 65z" />
<glyph unicode="-" horiz-adv-x="772" d="M0 760q0 43 29.5 72.5t72.5 29.5h394q43 0 72.5 -29.5t29.5 -72.5t-29.5 -72t-72.5 -29h-394q-43 0 -72.5 29t-29.5 72z" />
<glyph unicode="." horiz-adv-x="350" d="M-2 102v66q0 43 30 72.5t74 29.5q41 0 72 -30t31 -72v-66q0 -40 -31.5 -71t-71.5 -31q-43 0 -73.5 30.5t-30.5 71.5z" />
<glyph unicode="/" horiz-adv-x="1097" d="M-23 104q0 29 17 56l874 1380q12 23 36.5 36t51.5 13q45 0 73 -30t28 -74q0 -32 -17 -55q-161 -253 -458 -724.5t-416 -658.5q-30 -47 -86 -47q-44 0 -73.5 31t-29.5 73z" />
<glyph unicode="0" horiz-adv-x="1497" d="M0 344v903q0 143 101 243.5t243 100.5h606q141 0 241.5 -101t100.5 -243v-903q0 -142 -100.5 -243t-241.5 -101h-606q-142 0 -243 101t-101 243zM207 344q0 -57 40 -98t97 -41h584q-83 114 -228 312.5t-266.5 365.5t-226.5 313v-852zM324 1384q146 -199 394 -539.5 t369 -506.5v909q0 57 -40.5 98t-96.5 41h-606q-12 0 -20 -2z" />
<glyph unicode="1" horiz-adv-x="831" d="M-35 1489q0 43 30.5 72.5t74.5 29.5h184q141 0 241.5 -100t100.5 -242v-1145q0 -40 -31 -71t-71 -31q-42 0 -72.5 31t-30.5 71v1145q0 57 -40 97t-97 40h-184q-44 0 -74.5 30t-30.5 73z" />
<glyph unicode="2" horiz-adv-x="1503" d="M-2 1151v106q0 139 98 237.5t238 98.5h604q138 0 237 -98.5t99 -237.5v-278q0 -138 -98 -236t-236 -98h-604q-54 0 -92.5 -39t-38.5 -94v-309h1007q41 0 71 -30t30 -73q0 -41 -30 -70.5t-71 -29.5h-1108q-42 0 -73 29.5t-31 70.5v412q0 140 98 238t238 98h604 q54 0 92.5 39t38.5 92v278q0 55 -39.5 93.5t-93.5 38.5h-604q-55 0 -94 -39t-39 -93v-106q0 -44 -29.5 -74t-71.5 -30q-43 0 -72.5 30t-29.5 74z" />
<glyph unicode="3" horiz-adv-x="1523" d="M0 344v113q0 42 31 72t73 30q43 0 73 -29.5t30 -72.5v-113q0 -57 40.5 -98t96.5 -41h625q58 0 98.5 41t40.5 98v193q0 49 -22.5 88.5t-41.5 50.5h-702q-39 0 -68.5 27t-35.5 69q0 45 31 77t73 32h702q22 17 43 56t21 83v229q0 57 -40.5 97t-98.5 40h-625q-57 0 -97 -40.5 t-40 -96.5v-112q0 -43 -30 -73t-73 -30q-44 0 -74 30t-30 73v112q0 141 101 242.5t243 101.5h625q143 0 244.5 -101t101.5 -243v-229q0 -134 -90 -242q90 -108 90 -241v-193q0 -142 -101.5 -243t-244.5 -101h-625q-142 0 -243 101.5t-101 242.5z" />
<glyph unicode="4" horiz-adv-x="1587" d="M2 950v539q0 41 30.5 71.5t73.5 30.5q42 0 72.5 -31t30.5 -71v-539q0 -58 40 -98.5t97 -40.5h625q57 0 97 41t40 98v539q0 40 31 71t71 31q42 0 72.5 -31t30.5 -71v-1387q0 -43 -30 -72.5t-73 -29.5q-40 0 -71 30t-31 72v533q-71 -29 -137 -29h-625q-142 0 -243 101 t-101 243z" />
<glyph unicode="5" horiz-adv-x="1503" d="M0 342v170q0 43 29.5 72.5t72.5 29.5q42 0 73.5 -30t31.5 -72v-170q0 -56 40 -96.5t95 -40.5h621q57 0 97 40.5t40 96.5v291q0 56 -40 95.5t-97 39.5h-850q-42 0 -72.5 31t-30.5 71v373q0 141 99.5 241.5t240.5 100.5h815q42 0 72.5 -30t30.5 -72q0 -40 -31 -71.5 t-72 -31.5h-815q-57 0 -96 -40t-39 -97v-268h748q142 0 243 -100.5t101 -241.5v-291q0 -141 -101 -241.5t-243 -100.5h-621q-141 0 -241.5 100.5t-100.5 241.5z" />
<glyph unicode="6" horiz-adv-x="1550" d="M0 340v911q0 140 100.5 240t241.5 100h788q41 0 72 -30t31 -72t-31.5 -72.5t-71.5 -30.5h-788q-57 0 -96 -39.5t-39 -95.5v-336h772q141 0 241.5 -100t100.5 -242v-231q0 -141 -100.5 -241.5t-241.5 -100.5h-635q-142 0 -243 100t-101 240zM207 340q0 -56 40 -95.5 t97 -39.5h635q55 0 96 40.5t41 96.5v231q0 57 -40.5 97.5t-96.5 40.5h-772v-371z" />
<glyph unicode="7" horiz-adv-x="1153" d="M-154 1491q0 43 31.5 73.5t75.5 30.5h981q59 0 90 -55q11 -22 10 -50t-12 -54q-672 -1130 -825 -1385q-22 -38 -65 -48.5t-81 11.5q-49 28 -49 90q0 6 3 16.5t7.5 23t5.5 16.5l730 1226h-795q-44 0 -75.5 30.5t-31.5 74.5z" />
<glyph unicode="8" horiz-adv-x="1552" d="M0 340v215q0 140 98 238q-44 45 -71 109.5t-27 129.5v215q0 141 99.5 241.5t240.5 100.5h694q141 0 240.5 -100.5t99.5 -241.5v-213q0 -143 -96 -239q98 -98 98 -240v-213q0 -141 -100.5 -241.5t-241.5 -100.5h-692q-141 0 -241.5 99.5t-100.5 240.5zM205 1032 q0 -56 39.5 -95.5t95.5 -39.5h696q56 0 95.5 40t39.5 97v213q0 57 -40 97t-97 40h-694q-56 0 -95.5 -40t-39.5 -97v-215zM207 340q0 -56 39.5 -95.5t95.5 -39.5h692q57 0 97 40.5t40 96.5v213q0 57 -39.5 97t-95.5 40h-696q-55 0 -94 -40t-39 -97v-215z" />
<glyph unicode="9" horiz-adv-x="1552" d="M0 1018v233q0 141 100 240.5t242 99.5h637q141 0 241.5 -99.5t100.5 -240.5v-909q0 -141 -100.5 -241.5t-241.5 -100.5h-786q-54 0 -84.5 32t-30.5 70.5t30.5 70.5t84.5 32h786q55 0 96 40.5t41 96.5v334h-774q-142 0 -242 100t-100 242zM207 1018q0 -57 39 -97t96 -40 h774v370q0 55 -40.5 95t-96.5 40h-637q-57 0 -96 -39.5t-39 -95.5v-233z" />
<glyph unicode=":" horiz-adv-x="276" d="M0 160v139q0 43 30 72.5t74 29.5q41 0 72 -30t31 -72v-139q0 -41 -31.5 -73t-71.5 -32q-43 0 -73.5 31.5t-30.5 73.5zM0 700v142q0 43 30 72.5t74 29.5q41 0 72 -30t31 -72v-142q0 -40 -31.5 -71t-71.5 -31q-43 0 -73.5 30.5t-30.5 71.5z" />
<glyph unicode=";" horiz-adv-x="460" d="M0 274q0 41 30 72t72 31h82q40 0 71.5 -30t31.5 -71v-163q0 -42 -31.5 -72.5t-71.5 -30.5q-43 0 -72.5 30t-29.5 73v59q-35 8 -58.5 36.5t-23.5 65.5zM59 700v142q0 43 30.5 72.5t74.5 29.5q40 0 71 -30t31 -72v-142q0 -40 -31 -71t-71 -31q-44 0 -74.5 31t-30.5 71z" />
<glyph unicode="&#x3c;" horiz-adv-x="1024" />
<glyph unicode="=" horiz-adv-x="1157" d="M0 330q0 40 30 71t72 31h777q41 0 72.5 -31t31.5 -71q0 -44 -31 -74.5t-73 -30.5h-777q-43 0 -72.5 30.5t-29.5 74.5zM0 666q0 42 30 72t72 30h777q41 0 72.5 -30.5t31.5 -71.5q0 -42 -31 -72.5t-73 -30.5h-777q-43 0 -72.5 30t-29.5 73z" />
<glyph unicode="&#x3e;" horiz-adv-x="1024" />
<glyph unicode="?" horiz-adv-x="1431" d="M0 1135v110q0 141 100 240.5t242 99.5h619q141 0 240 -99.5t99 -240.5v-76q0 -142 -99 -242t-240 -100h-177q-56 0 -95.5 -40.5t-39.5 -96.5v-178q0 -44 -30 -74t-72 -30q-41 0 -72 30.5t-31 73.5v178q0 141 100 241.5t240 100.5h177q56 0 95.5 40t39.5 97v76 q0 57 -39.5 97t-95.5 40h-619q-57 0 -96 -40t-39 -97v-110q0 -42 -31.5 -72.5t-71.5 -30.5q-44 0 -74 30t-30 73zM444 102v142q0 43 30 72.5t73 29.5q42 0 72 -30t30 -72v-142q0 -40 -30.5 -71t-71.5 -31q-42 0 -72.5 31t-30.5 71z" />
<glyph unicode="@" horiz-adv-x="1638" d="M0 41v686q0 141 100 240.5t238 99.5h784q141 0 240.5 -99.5t99.5 -240.5v-516q0 -99 -69.5 -168.5t-169.5 -71.5h-39q-99 2 -168.5 71.5t-69.5 168.5v356q0 15 -11 26t-26 11h-368q-15 0 -25 -11.5t-10 -25.5v-356q0 -15 10 -26t25 -11h290q41 0 71 -30t30 -72 q0 -41 -30 -71t-71 -30h-290q-98 0 -168 70t-70 170v356q6 100 74 169t164 69h368q99 0 169.5 -70.5t70.5 -167.5v-356q0 -15 10 -26t25 -11h39q37 0 37 37v516q0 56 -40.5 96.5t-97.5 40.5h-784q-58 -3 -97.5 -43t-39.5 -94v-682q0 -55 40.5 -96t96.5 -41h1026 q41 0 70.5 -30t29.5 -71q0 -43 -29.5 -72.5t-70.5 -29.5h-1026q-137 0 -237.5 98.5t-100.5 237.5z" />
<glyph unicode="A" horiz-adv-x="1744" d="M0 109v1179q0 146 103 249t249 103h764q146 0 249 -103t103 -249v-1179q0 -44 -32 -75.5t-74 -31.5t-74.5 31.5t-32.5 75.5v622h-1044v-622q0 -44 -32 -75.5t-75 -31.5q-42 0 -73 31.5t-31 75.5zM211 940h1044v348q0 58 -41 98.5t-98 40.5h-764q-59 0 -100 -40.5 t-41 -98.5v-348z" />
<glyph unicode="B" horiz-adv-x="1716" d="M0 109v1163q0 155 101.5 261.5t250.5 106.5h676q61 0 117.5 -9.5t114 -34.5t100 -63.5t69.5 -101.5t27 -143v-235q0 -145 -100 -248q44 -49 71 -114.5t27 -131.5v-205q0 -146 -103 -249t-249 -103h-996q-42 0 -74 32.5t-32 74.5zM211 215h891q58 0 99.5 41t41.5 98v205 q0 59 -41.5 100t-99.5 41h-891v-485zM211 911h893q59 0 101 42t42 100v235q0 57 -42.5 99.5t-100.5 42.5h-752q-60 0 -100.5 -44.5t-40.5 -113.5v-361z" />
<glyph unicode="C" horiz-adv-x="1638" d="M0 354v934q0 146 103 249t249 103h932q46 0 76.5 -31t30.5 -75q0 -42 -31 -74.5t-76 -32.5h-932q-58 0 -99.5 -41t-41.5 -98v-934q0 -57 41.5 -99t99.5 -42h932q45 0 76 -31t31 -73q0 -45 -31 -76t-76 -31h-932q-146 0 -249 103t-103 249z" />
<glyph unicode="D" horiz-adv-x="1765" d="M0 106v1426q0 41 32.5 73.5t73.5 32.5h1059q146 0 249.5 -103t103.5 -249v-934q0 -146 -103.5 -249t-249.5 -103h-1059q-44 0 -75 31t-31 75zM213 211h952q57 0 99.5 42t42.5 99v934q0 57 -42.5 98t-99.5 41h-952v-1214z" />
<glyph unicode="E" horiz-adv-x="1658" d="M0 352v934q0 146 103 249t249 103h932q43 0 74 -31t31 -75q0 -42 -31.5 -74.5t-73.5 -32.5h-932q-57 0 -98 -41t-41 -98v-346h1047q44 0 74 -31t30 -73q0 -43 -30 -75t-74 -32h-1047v-377q0 -57 41 -99t98 -42h932q41 0 74 -32t33 -73q0 -43 -32.5 -74.5t-74.5 -31.5 h-932q-146 0 -249 103t-103 249z" />
<glyph unicode="F" horiz-adv-x="1579" d="M0 109v1179q0 146 104 249t250 103h942q42 0 74.5 -31.5t32.5 -74.5q0 -41 -33 -74t-74 -33h-942q-58 0 -99.5 -41t-41.5 -98v-346h979q44 0 75 -31t31 -73q0 -46 -31 -76.5t-75 -30.5h-979v-622q0 -44 -32.5 -75.5t-74.5 -31.5q-44 0 -75 31.5t-31 75.5z" />
<glyph unicode="G" horiz-adv-x="1818" d="M0 367v909q0 151 106.5 257.5t255.5 106.5h1082q44 0 75 -32t31 -76t-31 -75.5t-75 -31.5h-1082q-60 0 -103.5 -44t-43.5 -105v-909q0 -61 43.5 -105.5t103.5 -44.5h824q63 0 106 44t43 106v362h-760q-45 0 -76.5 31.5t-31.5 77.5q0 45 31.5 73.5t76.5 28.5h869 q45 0 75.5 -28.5t30.5 -73.5v-471q0 -151 -106 -258t-258 -107h-824q-149 0 -255.5 107t-106.5 258z" />
<glyph unicode="H" horiz-adv-x="1701" d="M0 109v1425q0 44 30 75t74 31q43 0 75 -31t32 -75v-592h997v592q0 44 30.5 75t74.5 31t74 -31t30 -75v-1425q0 -45 -30 -76t-74 -31t-74.5 31.5t-30.5 75.5v622h-997v-622q0 -44 -32 -75.5t-75 -31.5q-44 0 -74 31t-30 76z" />
<glyph unicode="I" horiz-adv-x="468" d="M0 106v1426q0 44 31 75t75 31q42 0 74.5 -31.5t32.5 -74.5v-1426q0 -43 -32.5 -74.5t-74.5 -31.5q-44 0 -75 31t-31 75z" />
<glyph unicode="J" horiz-adv-x="1662" d="M-27 106q0 42 30.5 73.5t74.5 31.5h962q58 0 100 42t42 99v1180q0 44 30 75t74 31q43 0 75 -31t32 -75v-1180q0 -146 -103.5 -249t-249.5 -103h-962q-44 0 -74.5 31t-30.5 75z" />
<glyph unicode="K" horiz-adv-x="1638" d="M0 106v1426q0 43 30.5 74.5t78.5 31.5q40 0 72 -32.5t32 -73.5v-596h635q112 408 170 625q12 35 40 55t64 20q44 0 74.5 -30t30.5 -70q0 -16 -6 -31q-13 -47 -69 -254t-85 -317q85 -7 148.5 -43t98 -88t50.5 -106t16 -107v-484q0 -47 -33 -76.5t-75 -29.5q-43 0 -74 29 t-31 77v484q0 58 -39 95.5t-98 37.5h-817v-617q0 -47 -31 -76.5t-73 -29.5q-50 0 -79.5 28.5t-29.5 77.5z" />
<glyph unicode="L" horiz-adv-x="1579" d="M0 352v1180q0 44 30 75t74 31q43 0 75 -31t32 -75v-1180q0 -57 41.5 -99t99.5 -42h961q43 0 74.5 -31.5t31.5 -73.5q0 -44 -31.5 -75t-74.5 -31h-961q-146 0 -249 103t-103 249z" />
<glyph unicode="M" horiz-adv-x="2953" d="M0 106v1180q0 146 103 249t249 103h721q66 0 132 -28.5t114 -73.5q97 102 248 102h721q146 0 249 -103t103 -249v-1180q0 -44 -30.5 -75t-74.5 -31t-74 31t-30 75v1180q0 58 -41.5 98.5t-101.5 40.5h-721q-59 0 -100.5 -40.5t-41.5 -98.5v-1180q0 -44 -30 -75t-74 -31 t-74 31t-30 75v1180q0 58 -42.5 98.5t-101.5 40.5h-721q-59 0 -100 -40.5t-41 -98.5v-1180q0 -44 -30.5 -75t-74.5 -31q-43 0 -74.5 31t-31.5 75z" />
<glyph unicode="N" horiz-adv-x="1769" d="M0 106v1180q0 146 103 249t249 103h852q146 0 249 -103t103 -249v-1180q0 -45 -30.5 -75.5t-75.5 -30.5q-42 0 -73 31t-31 75v1180q0 58 -41.5 99.5t-100.5 41.5h-852q-60 0 -101.5 -41t-41.5 -100v-1180q0 -44 -30.5 -75t-74.5 -31t-74 31t-30 75z" />
<glyph unicode="O" horiz-adv-x="1888" d="M0 352v934q0 146 103 249t249 103h922q146 0 249 -103t103 -249v-934q0 -146 -103 -249t-249 -103h-922q-146 0 -249 103t-103 249zM213 352q0 -57 41 -99t98 -42h922q58 0 99.5 42t41.5 99v934q0 57 -41.5 98t-99.5 41h-922q-57 0 -98 -41t-41 -98v-934z" />
<glyph unicode="P" horiz-adv-x="1728" d="M0 106v1180q0 146 103 249t251 103h809q146 0 249.5 -103t103.5 -249v-526q0 -146 -103.5 -249t-249.5 -103h-950v-302q0 -43 -32.5 -74.5t-74.5 -31.5q-44 0 -75 31t-31 75zM213 618h950q59 0 101.5 42t42.5 100v526q0 57 -42.5 98t-101.5 41h-809q-58 0 -99.5 -41 t-41.5 -98v-668z" />
<glyph unicode="Q" horiz-adv-x="1935" d="M0 350v940q0 146 102 248t248 102h971q146 0 249 -102t103 -248v-940q0 -146 -103 -248t-249 -102h-379q2 -57 42 -97t97 -40q44 0 74.5 -30.5t30.5 -74.5t-30.5 -74t-74.5 -30q-146 0 -247 100.5t-103 245.5h-381q-146 0 -248 102t-102 248zM209 350q0 -57 41.5 -98 t99.5 -41h381v260q0 44 31 74t76 30q43 0 73.5 -30t30.5 -74v-260h379q58 0 99.5 41t41.5 98v940q0 57 -41.5 98.5t-99.5 41.5h-971q-58 0 -99.5 -41.5t-41.5 -98.5v-940z" />
<glyph unicode="R" horiz-adv-x="1781" d="M0 109v1179q0 146 103 249t251 103h809q146 0 249.5 -103t103.5 -249v-334q0 -146 -102 -248t-249 -104q53 -137 185 -455q8 -16 8 -36q0 -42 -31 -75.5t-76 -33.5q-31 0 -58.5 18t-39.5 48l-211 534h-729v-493q0 -44 -32.5 -75.5t-74.5 -31.5q-44 0 -75 31.5t-31 75.5z M213 813h950q59 0 101.5 41.5t42.5 99.5v334q0 57 -42.5 98t-101.5 41h-809q-58 0 -99.5 -41t-41.5 -98v-475z" />
<glyph unicode="S" horiz-adv-x="1718" d="M-2 106q0 43 30 74t74 31h981q57 0 98.5 41.5t41.5 99.5v219q0 58 -41.5 100t-98.5 42h-733q-146 0 -249 103t-103 249v221q0 146 103 249t249 103h977q44 0 75.5 -31t31.5 -75q0 -42 -31.5 -74.5t-75.5 -32.5h-977q-60 0 -101.5 -40.5t-41.5 -98.5v-221q0 -57 41.5 -98 t101.5 -41h733q145 0 248 -104t103 -251v-219q0 -146 -103 -249t-248 -103h-981q-44 0 -74 31t-30 75z" />
<glyph unicode="T" horiz-adv-x="1742" d="M-25 1534q0 44 30.5 75t74.5 31h1339q45 0 76 -31t31 -75q0 -42 -31 -74.5t-76 -32.5h-563v-1318q0 -44 -30.5 -75.5t-73.5 -31.5q-44 0 -75.5 31.5t-31.5 75.5v1318h-565q-43 0 -74 32.5t-31 74.5z" />
<glyph unicode="U" horiz-adv-x="1847" d="M0 352v1180q0 44 30 75t74 31t74.5 -31t30.5 -75v-1180q0 -59 41.5 -100t101.5 -41h854q57 0 99.5 41.5t42.5 99.5v1180q0 44 31 75t73 31q44 0 75.5 -31t31.5 -75v-1180q0 -146 -103.5 -249t-249.5 -103h-854q-146 0 -249 103t-103 249z" />
<glyph unicode="V" horiz-adv-x="1644" d="M-31 1536q0 40 29 72t72 32q31 0 61 -18t43 -45l559 -1186l543 1184q12 31 38 49t58 18q47 0 78 -31t31 -73q0 -22 -8 -41l-642 -1427q-10 -33 -37.5 -51.5t-60.5 -18.5q-34 0 -61 18t-37 50l-658 1429q-8 16 -8 39z" />
<glyph unicode="W" horiz-adv-x="2619" d="M0 350v1184q0 43 31 74.5t75 31.5q42 0 73.5 -32t31.5 -74v-1184q0 -57 42 -98t99 -41h529q58 0 99.5 41t41.5 98v1184q0 43 30.5 74.5t75.5 31.5q42 0 73.5 -32t31.5 -74v-1184q0 -57 41.5 -98t99.5 -41h529q58 0 99.5 41t41.5 98v1184q0 43 30 74.5t74 31.5 q43 0 75 -31.5t32 -74.5v-1184q0 -146 -103 -248t-249 -102h-529q-68 0 -134 27.5t-114 72.5q-103 -100 -245 -100h-529q-146 0 -249 102t-103 248z" />
<glyph unicode="X" horiz-adv-x="1771" d="M0 106v482q0 140 100 248q-100 103 -100 245v451q0 44 31 75t75 31q42 0 74.5 -31.5t32.5 -74.5v-451q0 -59 41.5 -100t99.5 -41h830q60 0 101.5 41t41.5 100v451q0 44 31.5 75t75.5 31q43 0 73.5 -31t30.5 -75v-451q0 -140 -102 -245q102 -110 102 -248v-482 q0 -44 -30.5 -75t-73.5 -31q-44 0 -75.5 31t-31.5 75v482q0 59 -41.5 100t-101.5 41h-830q-58 0 -99.5 -41.5t-41.5 -99.5v-482q0 -43 -32.5 -74.5t-74.5 -31.5q-44 0 -75 31t-31 75z" />
<glyph unicode="Y" horiz-adv-x="1748" d="M0 1085v449q0 44 31 75t75 31q42 0 74.5 -31.5t32.5 -74.5v-449q0 -58 41 -99.5t98 -41.5h797q59 0 100 41t41 100v449q0 44 32 75t75 31q44 0 74 -31t30 -75v-449q0 -146 -103 -249t-249 -103h-264v-624q0 -44 -30.5 -75.5t-74.5 -31.5t-74 31t-30 76v624h-324 q-146 0 -249 103t-103 249z" />
<glyph unicode="Z" horiz-adv-x="1667" d="M0 106q0 43 25 68l1073 1253h-992q-43 0 -74.5 30.5t-31.5 74.5q0 43 31.5 74.5t74.5 31.5h1223q31 0 57.5 -17.5t38.5 -45.5q5 -19 5 -37q0 -38 -23 -72l-1071 -1253h1034q44 0 75.5 -32.5t31.5 -74.5q0 -44 -31.5 -75t-75.5 -31h-1264q-42 0 -74 31t-32 75z" />
<glyph unicode="[" horiz-adv-x="552" d="M0 -141v1730q0 41 29.5 71t70.5 30h160q41 0 70.5 -30t29.5 -71t-29.5 -70.5t-70.5 -29.5h-59v-1530h59q41 0 70.5 -29.5t29.5 -70.5q0 -43 -29.5 -73t-70.5 -30h-160q-41 0 -70.5 30t-29.5 73z" />
<glyph unicode="\" horiz-adv-x="950" d="M-35 1487q0 41 29.5 71.5t75.5 30.5q29 0 53.5 -14t34.5 -39l614 -1384q10 -27 10 -50q0 -54 -43 -86q-25 -14 -59 -14q-66 0 -86 51l-617 1383q-12 24 -12 51z" />
<glyph unicode="]" horiz-adv-x="405" d="M-160 -141q0 41 30 70.5t71 29.5h59v1530h-59q-41 0 -71 29.5t-30 70.5t30 71t71 30h159q41 0 71 -30t30 -71v-1730q0 -43 -30 -73t-71 -30h-159q-41 0 -71 30t-30 73z" />
<glyph unicode="^" horiz-adv-x="817" d="M-20 1184q0 38 16 59q42 59 125.5 173.5t118.5 162.5q38 41 79 41q47 0 78 -39l252 -338q21 -28 21 -59q0 -40 -29 -69.5t-70 -29.5q-48 0 -77 37l-175 236q-15 -21 -76.5 -107t-92.5 -131q-30 -30 -78 -30q-43 0 -67.5 25.5t-24.5 68.5z" />
<glyph unicode="_" horiz-adv-x="925" d="M4 100q0 43 30.5 73t71.5 30h676q42 0 71.5 -29.5t29.5 -73.5q0 -41 -30 -70.5t-71 -29.5h-676q-40 0 -71 29.5t-31 70.5z" />
<glyph unicode="`" horiz-adv-x="468" d="M2 1300q0 41 30 74t74 33q54 0 80 -39l111 -129q22 -28 22 -68q0 -43 -29 -73.5t-73 -30.5q-50 0 -80 37l-112 129q-23 29 -23 67z" />
<glyph unicode="a" d="M0 336q0 141 99 239.5t239 98.5h713v55q0 57 -40 96t-96 39h-804q-43 0 -73 30t-30 71t30 70.5t73 29.5h804q139 0 237.5 -98.5t98.5 -237.5v-393q0 -139 -97.5 -237.5t-235.5 -98.5h-582q-139 0 -237.5 99t-98.5 237zM203 336q0 -54 39 -93.5t94 -39.5h582q55 0 94 39.5 t39 93.5v135h-713q-57 0 -96 -39.5t-39 -95.5z" />
<glyph unicode="b" horiz-adv-x="1452" d="M0 342v1145q0 43 29.5 72.5t72.5 29.5q40 0 69.5 -30t29.5 -72v-422h721q141 0 241.5 -100t100.5 -242v-381q0 -141 -100.5 -241.5t-241.5 -100.5h-584q-141 0 -239.5 100.5t-98.5 241.5zM201 342q0 -57 40 -97t97 -40h584q57 0 97 40t40 97v385q0 57 -40 97t-97 40h-721 v-522z" />
<glyph unicode="c" horiz-adv-x="1409" d="M0 344v381q0 142 100.5 241t243.5 99h795q40 0 71 -30t31 -72q0 -39 -31 -69t-71 -30h-801q-56 0 -96.5 -40.5t-40.5 -98.5v-381q0 -58 40 -98.5t97 -40.5h797q43 0 72.5 -30t29.5 -73t-29.5 -72.5t-72.5 -29.5h-791q-142 0 -243 101t-101 243z" />
<glyph unicode="d" d="M0 342v381q0 142 98 242t238 100h688v422q0 43 29.5 72.5t70.5 29.5q43 0 72 -29.5t29 -72.5v-1145q0 -141 -99.5 -241.5t-240.5 -100.5h-549q-140 0 -238 100t-98 242zM201 342q0 -57 39.5 -97t95.5 -40h549q58 0 98.5 40t40.5 97v522h-688q-56 0 -95.5 -40t-39.5 -97 v-385z" />
<glyph unicode="e" horiz-adv-x="1456" d="M0 340v385q0 141 99.5 240.5t240.5 99.5h578q140 0 239.5 -99.5t99.5 -240.5v-215q0 -43 -29.5 -72.5t-72.5 -29.5h-954v-68q0 -56 40 -96.5t97 -40.5h782q41 0 72 -29.5t31 -71.5t-31 -72t-72 -30h-780q-141 0 -240.5 99.5t-99.5 240.5zM201 610h854v117q0 57 -40 97 t-97 40h-580q-57 0 -97 -40t-40 -97v-117z" />
<glyph unicode="f" horiz-adv-x="772" d="M0 102v1145q0 141 100.5 241.5t241.5 100.5h330q43 0 72.5 -29.5t29.5 -72.5q0 -42 -30 -72.5t-72 -30.5h-330q-55 0 -95 -40.5t-40 -96.5v-184h332q43 0 72.5 -30.5t29.5 -74.5q0 -40 -30 -71t-72 -31h-332v-754q0 -42 -31.5 -72t-73.5 -30q-43 0 -72.5 29.5t-29.5 72.5 z" />
<glyph unicode="g" horiz-adv-x="1492" d="M0 342v379q0 142 100.5 243t241.5 101h584q141 0 241.5 -101t100.5 -243v-911q0 -141 -100.5 -241.5t-241.5 -100.5h-742q-43 0 -72.5 29.5t-29.5 72.5t29.5 72.5t72.5 29.5h742q55 0 95 41t40 97v190h-719q-141 0 -241.5 100t-100.5 242zM205 342q0 -58 40 -98.5 t97 -40.5h719v526q0 56 -40 95.5t-95 39.5h-584q-57 0 -97 -40.5t-40 -98.5v-383z" />
<glyph unicode="h" horiz-adv-x="1406" d="M0 100v1389q0 41 29.5 70.5t72.5 29.5q41 0 70 -29.5t29 -70.5v-451q71 27 133 27h547q139 0 236 -98.5t97 -237.5v-629q0 -42 -29 -71t-71 -29q-41 0 -70.5 29.5t-29.5 70.5v629q0 55 -39 94t-94 39h-547q-56 0 -94.5 -39t-38.5 -94v-629q0 -41 -29 -70.5t-70 -29.5 q-43 0 -72.5 29.5t-29.5 70.5z" />
<glyph unicode="i" horiz-adv-x="417" d="M0 102v863q0 42 30 71t74 29q40 0 71.5 -29.5t31.5 -70.5v-863q0 -42 -31 -72t-72 -30q-44 0 -74 29.5t-30 72.5zM0 1260v65q0 43 30 72.5t74 29.5q41 0 72 -30t31 -72v-65q0 -41 -31.5 -72t-71.5 -31q-44 0 -74 30.5t-30 72.5z" />
<glyph unicode="j" horiz-adv-x="464" d="M-362 -420q0 42 30 73.5t72 31.5h184q57 0 97 39.5t40 95.5v1145q0 43 30 72.5t73 29.5q42 0 72 -30t30 -72v-1145q0 -141 -100 -241.5t-242 -100.5h-184q-43 0 -72.5 29.5t-29.5 72.5zM66 1260v65q0 42 31 72t71 30q43 0 72.5 -29.5t29.5 -72.5v-65q0 -42 -30 -72.5 t-72 -30.5q-40 0 -71 31t-31 72z" />
<glyph unicode="k" horiz-adv-x="1335" d="M0 102v1385q0 40 31.5 71t72.5 31q42 0 72.5 -31t30.5 -71v-811h596q57 0 98 41t41 98v148q0 42 30 72t72 30q41 0 72 -30t31 -72v-148q0 -143 -98 -244q98 -101 98 -239v-230q0 -40 -31.5 -71t-71.5 -31q-41 0 -71.5 31t-30.5 71v230q0 58 -40.5 97.5t-98.5 39.5h-596 v-367q0 -40 -30.5 -71t-72.5 -31q-41 0 -72.5 31t-31.5 71z" />
<glyph unicode="l" horiz-adv-x="747" d="M0 342v1145q0 43 30 72.5t74 29.5q41 0 72 -30t31 -72v-1145q0 -57 39.5 -97t95.5 -40h186q40 0 71.5 -31t31.5 -72q0 -40 -31.5 -71t-71.5 -31h-186q-141 0 -241.5 100.5t-100.5 241.5z" />
<glyph unicode="m" horiz-adv-x="2127" d="M0 100v617q0 143 99.5 245.5t240.5 102.5h373q138 0 241 -107q112 107 242 107h389q145 0 246.5 -102.5t101.5 -245.5v-617q0 -42 -30 -71t-74 -29q-43 0 -73 29.5t-30 70.5v617q0 58 -40 97.5t-101 39.5h-389q-55 0 -94 -40t-39 -97v-617q0 -42 -33 -71t-78 -29 q-43 0 -72.5 29.5t-29.5 70.5v617q0 57 -39.5 97t-97.5 40h-373q-56 0 -95.5 -40t-39.5 -97v-617q0 -40 -32 -70t-73 -30q-42 0 -71 29t-29 71z" />
<glyph unicode="n" horiz-adv-x="1359" d="M0 102v861q0 43 28.5 71.5t71.5 30.5h727q142 0 242 -100.5t100 -241.5v-621q0 -43 -29.5 -72.5t-72.5 -29.5q-41 0 -70.5 29.5t-29.5 72.5v621q0 57 -41 97t-99 40h-622v-758q0 -42 -31 -72t-72 -30q-43 0 -72.5 29.5t-29.5 72.5z" />
<glyph unicode="o" horiz-adv-x="1585" d="M0 344v379q0 141 100.5 241.5t241.5 100.5h707q142 0 243 -100.5t101 -241.5v-379q0 -141 -101 -241.5t-243 -100.5h-707q-141 0 -241.5 100.5t-100.5 241.5zM207 344q0 -57 39.5 -97t95.5 -40h707q57 0 97 40t40 97v383q0 57 -40 97t-97 40h-707q-56 0 -95.5 -40 t-39.5 -97v-383z" />
<glyph unicode="p" d="M0 -424v1151q0 141 100.5 239.5t241.5 98.5h573q141 0 241.5 -98.5t100.5 -239.5v-385q0 -141 -100.5 -241.5t-241.5 -100.5h-710v-424q0 -42 -31 -72t-72 -30q-43 0 -72.5 29.5t-29.5 72.5zM205 205h710q57 0 98.5 40t41.5 97v385q0 57 -41.5 97t-98.5 40h-573 q-57 0 -97 -40t-40 -97v-522z" />
<glyph unicode="q" horiz-adv-x="1486" d="M0 346v381q0 141 100.5 239.5t241.5 98.5h580q141 0 241.5 -98.5t100.5 -239.5v-1147q0 -43 -30 -72.5t-73 -29.5t-72.5 29.5t-29.5 72.5v424h-717q-141 0 -241.5 100.5t-100.5 241.5zM205 346q0 -57 40 -97t97 -40h717v518q0 57 -40 97t-97 40h-580q-57 0 -97 -40 t-40 -97v-381z" />
<glyph unicode="r" horiz-adv-x="1329" d="M0 100v633q0 137 98 234.5t234 97.5h504q138 0 234.5 -97.5t96.5 -234.5q0 -42 -29 -71t-71 -29q-40 0 -69 29t-29 71q0 54 -39.5 92.5t-93.5 38.5h-504q-54 0 -92.5 -38.5t-38.5 -92.5v-633q0 -41 -30 -70.5t-71 -29.5t-70.5 29.5t-29.5 70.5z" />
<glyph unicode="s" horiz-adv-x="1472" d="M-18 748q0 133 97 225t243 92h806q40 0 71.5 -30.5t31.5 -71.5q0 -39 -31.5 -69t-71.5 -30h-806q-60 0 -99 -35t-39 -81t39 -79.5t99 -33.5h579q147 0 247.5 -91.5t100.5 -224.5q0 -132 -100.5 -225.5t-247.5 -93.5h-815q-41 0 -70.5 29.5t-29.5 72.5q0 42 29 71.5 t71 29.5h815q60 0 100.5 34.5t40.5 81.5q0 45 -40.5 79t-100.5 34h-579q-146 0 -243 92t-97 224z" />
<glyph unicode="t" horiz-adv-x="800" d="M0 342v1145q0 43 29 72.5t73 29.5q41 0 72 -30t31 -72v-420h334q43 0 72.5 -29.5t29.5 -72.5q0 -41 -29.5 -71t-72.5 -30h-334v-522q0 -57 40 -97t97 -40h197q44 0 74 -30.5t30 -72.5q0 -43 -30 -72.5t-74 -29.5h-197q-142 0 -242 100.5t-100 241.5z" />
<glyph unicode="u" horiz-adv-x="1439" d="M0 342v621q0 42 30 72t72 30t73.5 -30.5t31.5 -71.5v-621q0 -57 39.5 -97t95.5 -40h662v756q0 42 30 72t72 30t72 -30t30 -72v-859q0 -40 -30 -71t-72 -31h-764q-141 0 -241.5 100.5t-100.5 241.5z" />
<glyph unicode="v" horiz-adv-x="1427" d="M-18 971q0 41 27.5 72.5t72.5 31.5q65 0 92 -53l444 -797q1 3 5 9t6 10q191 340 434 778q27 53 88 53q45 0 74.5 -30t29.5 -72q0 -29 -14 -51l-479 -869q-32 -53 -90 -53h-103q-59 0 -88 53l-487 869q-12 24 -12 49z" />
<glyph unicode="w" horiz-adv-x="2004" d="M0 342v621q0 43 29.5 72.5t72.5 29.5q42 0 72.5 -30t30.5 -72v-621q0 -57 40 -97t97 -40h326q56 0 96.5 40t40.5 97v621q0 43 29 72.5t73 29.5q41 0 72 -30t31 -72v-621q0 -57 40 -97t97 -40h305q57 0 97 40t40 97v621q0 43 30 72.5t73 29.5q42 0 72 -30t30 -72v-621 q0 -141 -100 -241.5t-242 -100.5h-305q-65 0 -129.5 26.5t-110.5 69.5q-99 -96 -239 -96h-326q-141 0 -241.5 100.5t-100.5 241.5z" />
<glyph unicode="x" horiz-adv-x="1423" d="M0 102v172q0 139 98 240q-98 101 -98 240v209q0 43 30 72.5t74 29.5q41 0 72 -30t31 -72v-209q0 -57 39.5 -97.5t95.5 -40.5h545q58 0 98.5 40.5t40.5 97.5v209q0 43 29.5 72.5t72.5 29.5q42 0 71.5 -29.5t29.5 -72.5v-209q0 -138 -99 -240q99 -102 99 -240v-172 q0 -42 -29.5 -72t-71.5 -30q-43 0 -72.5 29.5t-29.5 72.5v172q0 57 -40.5 97.5t-98.5 40.5h-545q-56 0 -95.5 -40.5t-39.5 -97.5v-172q0 -42 -31 -72t-72 -30q-44 0 -74 29.5t-30 72.5z" />
<glyph unicode="y" horiz-adv-x="1429" d="M0 342v623q0 43 29 72.5t73 29.5q41 0 72 -30t31 -72v-623q0 -56 40 -96.5t97 -40.5h557q55 0 95 40.5t40 96.5v623q0 43 30.5 72.5t74.5 29.5q40 0 71 -30t31 -72v-1143q0 -142 -100.5 -242t-241.5 -100h-706q-44 0 -74.5 29.5t-30.5 70.5q0 44 30.5 74.5t74.5 30.5h706 q56 0 95.5 40t39.5 97v207q-71 -29 -135 -29h-557q-142 0 -242 100.5t-100 241.5z" />
<glyph unicode="z" horiz-adv-x="1406" d="M-16 96q0 55 39 84q635 530 821 684h-754q-46 0 -76 27.5t-30 73.5q0 42 30 71t74 29h1036q39 0 67 -34.5t28 -78.5q0 -55 -45 -88q-619 -511 -803 -665h755q41 0 70 -30.5t29 -70.5q0 -43 -28.5 -70.5t-70.5 -27.5h-1046q-37 0 -66.5 29.5t-29.5 66.5z" />
<glyph unicode="{" horiz-adv-x="724" d="M-127 817q0 46 30.5 73.5t76.5 27.5h22v440q0 140 100 240t242 100h152q42 0 72 -28t30 -75q0 -42 -30.5 -71t-71.5 -29h-152q-58 0 -97.5 -40.5t-39.5 -96.5v-1182q0 -58 39.5 -97.5t97.5 -39.5h152q40 0 71 -31t31 -71q0 -41 -31 -71t-71 -30h-152q-142 0 -242 99.5 t-100 240.5v539h-22q-44 0 -75.5 31t-31.5 71z" />
<glyph unicode="|" horiz-adv-x="395" d="M-2 -250v1739q0 43 30 72.5t74 29.5q41 0 72 -30t31 -72v-1739q0 -43 -31 -73.5t-72 -30.5q-44 0 -74 30t-30 74z" />
<glyph unicode="}" horiz-adv-x="724" d="M-29 -63q0 40 31.5 71t71.5 31h153q57 0 96 39.5t39 97.5v1182q0 56 -39.5 96.5t-95.5 40.5h-153q-41 0 -72 29t-31 71q0 47 30.5 75t72.5 28h153q141 0 241.5 -100t100.5 -240v-440h21q46 0 76 -27.5t30 -73.5q0 -40 -31 -71t-75 -31h-21v-539q0 -141 -100.5 -240.5 t-241.5 -99.5h-153q-40 0 -71.5 30t-31.5 71z" />
<glyph unicode="~" horiz-adv-x="1492" d="M170 361.5q13 42.5 53 64.5q121 68 256 68q98 0 178 -35q59 -27 129 -27q85 0 152 37q38 23 81 10t66 -53q22 -39 9 -81t-52 -66q-120 -66 -260 -66q-112 0 -213 43q-43 18 -92 18q-80 0 -149 -38q-38 -22 -83 -8.5t-65 53.5v-2q-23 40 -10 82.5z" />
<glyph unicode="&#xa1;" horiz-adv-x="206" d="M-45 100v1086q0 43 30 72.5t74 29.5q41 0 72 -30t31 -72v-1086q0 -42 -31 -72t-72 -30q-44 0 -74 29.5t-30 72.5zM-45 1409v76q0 43 30 72.5t74 29.5q41 0 72 -30t31 -72v-76q0 -42 -31 -72t-72 -30q-44 0 -74 29.5t-30 72.5z" />
<glyph unicode="&#xa2;" horiz-adv-x="1263" d="M0 352v369q0 144 101.5 244t244.5 100h170v123q0 42 30 72t72 30q43 0 73 -29.5t30 -72.5v-123h266q41 0 72 -29.5t31 -72.5q0 -42 -31.5 -72.5t-71.5 -30.5h-641q-58 0 -99.5 -41t-41.5 -98v-369q0 -57 41.5 -98t99.5 -41h641q43 0 73 -29.5t30 -72.5t-30 -73t-73 -30 h-266v-112q0 -43 -30 -73t-73 -30q-42 0 -72 30.5t-30 72.5v112h-170q-143 0 -244.5 101t-101.5 243z" />
<glyph unicode="&#xa3;" horiz-adv-x="1110" />
<glyph unicode="&#xa4;" horiz-adv-x="1366" d="M72 250l141 143q-2 3 -16 31q-12 17 -35 70v-2q-25 73 -27 86q-8 39 -8 104q0 62 12 117q6 27 31 90v-2q13 37 39 71l-4 -4q9 9 9 11t1 4l-141 141l149 152l144 -142l2 2q27 19 90 47q7 2 19 6.5t21 8t22 7t24 5.5q53 12 110 12q63 0 115 -14l-2 2q28 -3 90 -29h-2 q41 -17 74 -39q6 -6 8 -10l145 146l154 -154l-143 -141q3 -5 8 -13t8 -13l7.5 -12.5t8 -13.5t7 -14t6.5 -16q41 -111 41 -209q0 -117 -43 -207q-14 -33 -41 -72l2 4q-1 -2 -3 -4.5t-3 -4t-2 -3.5q78 -81 145 -145l-152 -150l-145 148q-13 -13 -25 -19l2 2q-60 -39 -116 -55 t-146 -16q-175 0 -286 86q-81 -77 -144 -144zM334 680q0 -131 92 -229v2q95 -95 229 -95q68 0 127 25t97 66q41 41 69 102q25 64 25 131q0 69 -27 135q-59 122 -170 164q-53 23 -119 23q-130 0 -227 -91v2q-44 -38 -70 -99.5t-26 -135.5zM973 1098q8 -7 11 -8l-7 8h-4z M1063 1009q1 -3 2 -5v4z" />
<glyph unicode="&#xa5;" horiz-adv-x="1646" d="M0 1016v471q0 43 29.5 72.5t72.5 29.5q42 0 72.5 -30t30.5 -72v-471q0 -57 40.5 -97t96.5 -40h772q57 0 97 40t40 97v471q0 42 31 72t72 30q43 0 72.5 -29.5t29.5 -72.5v-471q0 -142 -100.5 -242t-241.5 -100h-256v-10h197q43 0 72.5 -30t29.5 -73q0 -59 -49 -86 q25 -12 40 -37.5t15 -54.5q0 -41 -29.5 -70.5t-72.5 -29.5h-203v-181q0 -43 -29.5 -72.5t-70.5 -29.5q-44 0 -73.5 29.5t-29.5 72.5v181h-213q-43 0 -72.5 29.5t-29.5 70.5q0 60 49 88q-55 25 -55 90q0 43 30 73t74 30h217v10h-313q-141 0 -241.5 100t-100.5 242z" />
<glyph unicode="&#xa6;" horiz-adv-x="468" d="M-45 -254v547q0 44 30 74t74 30q41 0 72 -30.5t31 -73.5v-547q0 -42 -31 -72t-72 -30q-44 0 -74 29.5t-30 72.5zM-45 674v547q0 44 30 73t74 29q41 0 72 -29.5t31 -72.5v-547q0 -43 -31 -74t-72 -31q-44 0 -74 30.5t-30 74.5z" />
<glyph unicode="&#xa7;" horiz-adv-x="1024" />
<glyph unicode="&#xa8;" horiz-adv-x="907" d="M45 1159v66q0 43 29.5 72.5t72.5 29.5q42 0 72.5 -30t30.5 -72v-66q0 -40 -31 -71t-72 -31q-42 0 -72 31t-30 71zM494 1159v66q0 43 29.5 72.5t72.5 29.5q42 0 73 -30t31 -72v-66q0 -40 -31.5 -71t-72.5 -31q-42 0 -72 31t-30 71z" />
<glyph unicode="&#xa9;" horiz-adv-x="1705" d="M-14 897q0 148 56 281t151 228t226.5 150.5t278.5 55.5q196 0 359 -93.5t257.5 -258.5t94.5 -365q0 -208 -113 -389q-93 -141 -251.5 -230.5t-348.5 -89.5q-138 0 -267 52.5t-227 144.5t-157 226.5t-59 287.5zM139 895q0 -149 72.5 -276.5t201.5 -203t285 -75.5 q147 0 274 69.5t205 197.5t80 288q0 151 -71 279.5t-200 206t-288 77.5q-152 0 -280.5 -74t-203.5 -203.5t-75 -285.5zM231 901q0 131 61 241t172.5 175t248.5 65q63 0 124 -19t102 -42.5t84 -61t60.5 -57t40.5 -47.5l-149 -131q-27 31 -47.5 51.5t-55.5 49t-75 44t-82 15.5 q-118 0 -199.5 -80t-81.5 -199q0 -126 83.5 -205t197.5 -79q44 0 85.5 16t78 46.5t54 48t42.5 46.5l149 -127q-2 -3 -14 -17.5t-16.5 -20t-17 -20t-20.5 -23t-22 -21.5t-25 -22t-25.5 -19.5t-29.5 -18.5h2q-119 -67 -249 -67q-92 0 -178 34t-152.5 94.5t-106 152 t-39.5 198.5z" />
<glyph unicode="&#xaa;" horiz-adv-x="724" />
<glyph unicode="&#xab;" horiz-adv-x="980" />
<glyph unicode="&#xac;" horiz-adv-x="1366" />
<glyph unicode="&#xad;" horiz-adv-x="772" d="M0 760q0 43 29.5 72.5t72.5 29.5h394q43 0 72.5 -29.5t29.5 -72.5t-29.5 -72t-72.5 -29h-394q-43 0 -72.5 29t-29.5 72z" />
<glyph unicode="&#xae;" horiz-adv-x="1705" d="M84 784q0 150 58 283.5t155 227t227.5 148t272.5 54.5q201 0 366.5 -97.5t257 -261t90.5 -356.5q-1 -146 -56 -277t-150 -225.5t-227.5 -150t-282.5 -55.5q-138 0 -267 52.5t-227 143.5t-157.5 225.5t-59.5 288.5zM238 784q0 -153 75.5 -282t204 -203t279.5 -74 q156 0 284.5 74.5t202 202.5t74.5 282q1 151 -71 279t-201 204t-285 76q-155 0 -285 -75.5t-204 -203.5t-74 -280zM483 326v925h303q66 0 90.5 -0.5t58.5 -5.5t62 -16q75 -31 116.5 -95t41.5 -137q0 -149 -125 -213q54 -49 72 -163q11 -76 16.5 -104t23 -76.5t50.5 -114.5 h-246q-10 23 -17 39.5t-13 35t-9 26t-6.5 28t-4.5 25.5t-5.5 34.5t-5.5 38.5q-2 13 -4.5 32.5t-3.5 24.5q-13 63 -50 82t-116 21h-13v-387h-215zM700 903h95q17 0 25 0.5t28.5 2t33 7t27.5 14.5t22 24t7 36q0 34 -25 55q-16 16 -43.5 19.5t-101.5 3.5h-68v-162z" />
<glyph unicode="&#xaf;" horiz-adv-x="907" d="M-27 1194q0 43 30.5 72.5t74.5 29.5h522q44 0 74.5 -29.5t30.5 -72.5t-30.5 -72.5t-74.5 -29.5h-522q-44 0 -74.5 29.5t-30.5 72.5z" />
<glyph unicode="&#xb0;" horiz-adv-x="724" d="M25 1171q0 55 26 127q53 122 170 170q70 25 125 25q67 0 128 -27t101 -67q39 -42 66 -102t27 -126q0 -63 -25 -127v3q-27 -64 -68.5 -106t-103.5 -69q-58 -22 -125 -22q-66 0 -125 24h2q-90 37 -144 112.5t-54 184.5zM231 1171q0 -50 32.5 -83t82.5 -33q48 0 82.5 34.5 t34.5 81.5t-34.5 81t-82.5 34q-46 0 -80.5 -34.5t-34.5 -80.5z" />
<glyph unicode="&#xb1;" horiz-adv-x="1024" d="M33 0v205h913v-205h-913zM33 639v205h358v354h203v-354h352v-205h-352v-354h-203v354h-358z" />
<glyph unicode="&#xb4;" horiz-adv-x="700" d="M223 1171q0 39 23 68q9 10 108 127q30 41 82 41q43 0 74 -31t31 -71q0 -37 -27 -72l-111 -129q-30 -37 -79 -37q-44 0 -72.5 30.5t-28.5 73.5z" />
<glyph unicode="&#xb5;" horiz-adv-x="1024" />
<glyph unicode="&#xb6;" horiz-adv-x="1366" d="M150 1004q0 45 16 120q18 69 62 129t100 90q50 33 100 48q56 18 102 18q50 4 78 4h459v-176h-61v-1548h-181v1548h-198v-1548h-181v936q-47 11 -69 20q-62 17 -129 88q-98 117 -98 271z" />
<glyph unicode="&#xb7;" horiz-adv-x="1024" d="M365 524v133q0 60 41 101t104 41q56 0 98.5 -41.5t42.5 -100.5v-133q0 -62 -42 -103.5t-99 -41.5q-63 0 -104 41t-41 104z" />
<glyph unicode="&#xb8;" horiz-adv-x="468" d="M-152 -215q-1 53 29 102t78 80v60q0 41 29 71.5t75 30.5q38 0 70.5 -31.5t32.5 -70.5v-136q0 -40 -31.5 -72t-71.5 -32h-4q0 -5 6 -8.5t13 -3.5q42 4 77 -30t35 -73q0 -42 -31 -72t-71 -30q-90 0 -161.5 57t-74.5 158z" />
<glyph unicode="&#xb9;" horiz-adv-x="681" d="M158 1120v172q42 0 71.5 8.5t44 19t21.5 30t8 32t0 33.5h184v-919h-182v628q-66 -9 -147 -4z" />
<glyph unicode="&#xba;" horiz-adv-x="681" d="M-2 1057q0 64 20 125v-2q17 58 60 120v-2q93 132 250 132q82 0 143 -37h-2q59 -30 102 -88q41 -51 62 -117q20 -54 20 -133q0 -81 -20 -142q-16 -43 -41 -81.5t-59 -70t-72 -50.5q-74 -31 -137 -31q-81 0 -139 35t-109 96q-41 65 -60 119q-18 68 -18 127zM311 807h25 q2 2 2 18q2 8 2 17v413q0 31 -6 52v-2q2 -5 -8 -5h-11q-4 -12 -4 -45v-448zM315 1300q0 3 2 5q0 -1 -1 -2.5t-1 -2.5z" />
<glyph unicode="&#xbb;" horiz-adv-x="1173" d="M-27 346q0 47 37 76l236 176q-162 118 -238 170q-31 31 -31 78q0 41 26.5 66.5t68.5 25.5q38 0 59 -16q59 -42 173.5 -125.5t162.5 -118.5q41 -35 41 -80q0 -51 -39 -78l-338 -252q-24 -18 -59 -18q-40 0 -69.5 28t-29.5 68zM438 346q0 47 37 76l236 176q-3 2 -9.5 7 t-9.5 7q-149 109 -219 156q-31 31 -31 78q0 41 26.5 66.5t68.5 25.5q38 0 59 -16q59 -42 173.5 -125.5t162.5 -118.5q41 -35 41 -80q0 -51 -39 -78l-338 -252q-24 -18 -59 -18q-40 0 -69.5 28t-29.5 68z" />
<glyph unicode="&#xbc;" horiz-adv-x="1667" d="M0 1182v118q109 0 187 36t96 108h143v-885h-178v623h-248zM213 -49l858 1532h160l-856 -1532h-162zM819 199v166l379 512h199v-525h96v-153h-96v-199h-178v199h-400zM975 352h244v324h-5z" />
<glyph unicode="&#xbd;" horiz-adv-x="1824" d="M0 1182v118q109 0 187 36t96 108h143v-885h-178v623h-248zM207 -49l858 1532h160l-856 -1532h-162zM895 0q0 73 19.5 133t58.5 105.5t75.5 75t90.5 63.5q20 13 58.5 36t58.5 35.5t48 34.5t42.5 41.5t25 48t10.5 60.5q0 64 -42 100.5t-107 36.5q-78 0 -112 -57.5 t-38 -143.5h-178q0 160 88 252t248 92q140 0 230 -70.5t90 -205.5q0 -93 -55 -159.5t-154 -129.5q-20 -13 -62.5 -38.5t-64.5 -40.5t-51 -37t-45.5 -43.5t-24.5 -45.5h436v-143h-645z" />
<glyph unicode="&#xbe;" horiz-adv-x="1792" d="M33 858h164q-3 -75 43 -124.5t129 -49.5q74 0 124 39.5t50 105.5q0 46 -20 76.5t-57.5 44.5t-76.5 18.5t-90 2.5v119q86 -3 146.5 28t60.5 99q0 51 -43 76.5t-98 25.5q-68 0 -110.5 -44.5t-39.5 -111.5h-164q6 141 90.5 220t225.5 79q60 0 112 -13t96 -40t69.5 -74 t25.5 -110q0 -66 -33 -114t-98 -71v-4q78 -13 123 -71.5t45 -143.5q0 -131 -96.5 -205.5t-241.5 -74.5q-164 0 -248.5 82.5t-87.5 234.5zM401 -49l859 1532h159l-856 -1532h-162zM971 199v166l375 512h202v-525h97v-153h-97v-199h-178v199h-399zM1126 352h244v324h-4z" />
<glyph unicode="&#xbf;" horiz-adv-x="811" d="M0 340v78q0 141 99.5 241.5t240.5 100.5h176q57 0 96 39.5t39 95.5v170q0 42 31 72t72 30q42 0 72 -30t30 -72v-170q0 -141 -99.5 -241.5t-240.5 -100.5h-176q-56 0 -95.5 -39.5t-39.5 -95.5v-78q0 -56 39.5 -95.5t95.5 -39.5h621q55 0 94 39.5t39 95.5v111q0 42 31 72 t73 30q43 0 72.5 -29.5t29.5 -72.5v-111q0 -141 -99 -240.5t-240 -99.5h-621q-141 0 -240.5 99.5t-99.5 240.5zM651 1343v140q0 41 31.5 71.5t71.5 30.5q42 0 72 -30t30 -72v-140q0 -44 -29.5 -74t-72.5 -30q-41 0 -72 30.5t-31 73.5z" />
<glyph unicode="&#xc0;" horiz-adv-x="1642" d="M0 109q0 -44 31 -75.5t73 -31.5q43 0 75 31.5t32 75.5v622h1044v-622q0 -44 32.5 -75.5t74.5 -31.5t74 31.5t32 75.5v1179q0 146 -103 249t-249 103h-764q-146 0 -249 -103t-103 -249v-1179zM211 940v348q0 58 41 98.5t100 40.5h764q57 0 98 -40.5t41 -98.5v-348h-1044z M551 1935q0 41 30 74t74 33q54 0 80 -39q16 -19 34.5 -40.5t41.5 -48t35 -40.5q22 -28 22 -68q0 -44 -28.5 -74t-73.5 -30q-50 0 -80 37l-113 129q-22 28 -22 67z" />
<glyph unicode="&#xc1;" horiz-adv-x="1642" d="M0 109q0 -44 31 -75.5t73 -31.5q43 0 75 31.5t32 75.5v622h1044v-622q0 -44 32.5 -75.5t74.5 -31.5t74 31.5t32 75.5v1179q0 146 -103 249t-249 103h-764q-146 0 -249 -103t-103 -249v-1179zM211 940v348q0 58 41 98.5t100 40.5h764q57 0 98 -40.5t41 -98.5v-348h-1044z M559 1823q0 38 23 67q8 10 108 127q30 41 82 41q44 0 74.5 -31t30.5 -71q0 -38 -27 -72l-111 -129q-30 -37 -80 -37q-44 0 -72 31t-28 74z" />
<glyph unicode="&#xc2;" horiz-adv-x="1642" d="M0 109v1179q0 146 103 249t249 103h764q146 0 249 -103t103 -249v-1179q0 -44 -32 -75.5t-74 -31.5t-74.5 31.5t-32.5 75.5v622h-1044v-622q0 -44 -32 -75.5t-75 -31.5q-42 0 -73 31.5t-31 75.5zM211 940h1044v348q0 58 -41 98.5t-98 40.5h-764q-59 0 -100 -40.5 t-41 -98.5v-348zM529.5 1803q-5.5 41 19.5 73l121 160q33 39 80 39q50 0 77 -39l121 -160q26 -33 19.5 -74t-37.5 -63q-33 -25 -72 -19.5t-63 35.5l-45 60q-9 -10 -22.5 -30t-18.5 -26q-28 -31 -68.5 -37.5t-73.5 17.5q-32 23 -37.5 64z" />
<glyph unicode="&#xc3;" horiz-adv-x="1642" d="M0 109v1179q0 146 103 249t249 103h764q146 0 249 -103t103 -249v-1179q0 -44 -32 -75.5t-74 -31.5t-74.5 31.5t-32.5 75.5v622h-1044v-622q0 -44 -32 -75.5t-75 -31.5q-42 0 -73 31.5t-31 75.5zM211 940h1044v348q0 58 -41 98.5t-98 40.5h-764q-59 0 -100 -40.5 t-41 -98.5v-348zM319 1857.5q13 41.5 50 61.5q107 61 233 61q94 0 168 -32h-2q50 -23 117 -23q80 0 139 33q38 21 79.5 9t61.5 -50q20 -37 7.5 -78t-48.5 -63q-105 -60 -237 -60q-106 0 -199 41q-46 17 -84 17q-65 0 -137 -37q-38 -21 -79.5 -9t-61.5 50t-7 79.5z" />
<glyph unicode="&#xc4;" horiz-adv-x="1642" d="M0 109q0 -44 31 -75.5t73 -31.5q43 0 75 31.5t32 75.5v622h1044v-622q0 -44 32.5 -75.5t74.5 -31.5t74 31.5t32 75.5v1179q0 146 -103 249t-249 103h-764q-146 0 -249 -103t-103 -249v-1179zM211 940v348q0 58 41 98.5t100 40.5h764q57 0 98 -40.5t41 -98.5v-348h-1044z M408 1798v66q0 43 29.5 72.5t72.5 29.5q42 0 72 -30t30 -72v-66q0 -40 -30.5 -71t-71.5 -31q-42 0 -72 31t-30 71zM856 1798v66q0 43 29.5 72.5t72.5 29.5q42 0 73.5 -30t31.5 -72v-66q0 -40 -32 -71t-73 -31q-42 0 -72 31t-30 71z" />
<glyph unicode="&#xc5;" horiz-adv-x="1744" d="M0 109v1179q0 146 103 249t249 103h764q146 0 249 -103t103 -249v-1179q0 -44 -32 -75.5t-74 -31.5t-74.5 31.5t-32.5 75.5v622h-1044v-622q0 -44 -32 -75.5t-75 -31.5q-42 0 -73 31.5t-31 75.5zM211 940h1044v348q0 58 -41 98.5t-98 40.5h-764q-59 0 -100 -40.5 t-41 -98.5v-348zM514 1898q0 47 18 84v-2q11 37 42.5 68.5t70.5 46.5h-2q39 16 86 16q43 0 82 -16h-2q91 -32 115 -117v2q18 -37 18 -82q0 -48 -18 -83v2q-11 -36 -43 -68q-37 -37 -70 -47h2q-33 -16 -84 -16q-92 0 -154 59q-61 64 -61 153zM688 1898q0 -14 13 -26t28 -12 q16 0 27.5 12t11.5 26q0 13 -13 26t-26 13q-14 0 -27.5 -12t-13.5 -27z" />
<glyph unicode="&#xc6;" horiz-adv-x="2400" d="M0 106v1180q0 146 104 249t250 103h527q136 0 243 -104q95 106 252 106h719q43 0 73 -31t30 -75q0 -42 -30.5 -73t-72.5 -31h-719q-58 0 -99.5 -42.5t-41.5 -99.5v-360h833q45 0 76 -32.5t31 -74.5t-31 -74t-76 -32h-833v-361q0 -57 41.5 -98t99.5 -41h719q41 0 73 -32.5 t32 -73.5q0 -44 -31.5 -75.5t-73.5 -31.5h-719q-92 0 -166 41q-32 -43 -84 -43q-42 0 -74 31t-32 75v592h-807v-592q0 -44 -32 -75t-75 -31q-42 0 -74 31t-32 75zM213 907h807v379q0 58 -41 99.5t-98 41.5h-527q-58 0 -99.5 -41.5t-41.5 -99.5v-379z" />
<glyph unicode="&#xc7;" horiz-adv-x="1497" d="M0 352v934q0 146 104 249t250 103h932q44 0 75.5 -31t31.5 -75q0 -42 -31.5 -73.5t-75.5 -31.5h-932q-58 0 -99.5 -42t-41.5 -99v-934q0 -57 41.5 -98t99.5 -41h932q44 0 75.5 -32.5t31.5 -74.5q0 -44 -31.5 -75t-75.5 -31h-422v-82q0 -37 -33 -74q-32 -32 -73 -32h-4 q0 -5 6.5 -10t13.5 -5q43 6 79 -28.5t36 -75.5q0 -44 -32 -74.5t-75 -30.5t-84 14t-76 40.5t-56.5 70.5t-22.5 99q-1 54 29 104t79 80v4h-297q-146 0 -250 103t-104 249z" />
<glyph unicode="&#xc8;" horiz-adv-x="1462" d="M0 352q0 -146 103 -249t249 -103h932q42 0 74.5 31.5t32.5 74.5q0 41 -33 73t-74 32h-932q-57 0 -98 42t-41 99v377h1047q44 0 74 32t30 75q0 42 -30 73t-74 31h-1047v346q0 57 41 98t98 41h932q42 0 73.5 32.5t31.5 74.5q0 44 -31 75t-74 31h-932q-146 0 -249 -103 t-103 -249v-934zM551 1937q0 41 30 74t74 33q54 0 80 -39q16 -19 34.5 -40.5t41.5 -48t35 -40.5q22 -28 22 -68q0 -43 -29 -73.5t-73 -30.5q-50 0 -80 37l-113 129q-22 28 -22 67z" />
<glyph unicode="&#xc9;" horiz-adv-x="1556" d="M0 352q0 -146 103 -249t249 -103h932q42 0 74.5 31.5t32.5 74.5q0 41 -33 73t-74 32h-932q-57 0 -98 42t-41 99v377h1047q44 0 74 32t30 75q0 42 -30 73t-74 31h-1047v346q0 57 41 98t98 41h932q42 0 73.5 32.5t31.5 74.5q0 44 -31 75t-74 31h-932q-146 0 -249 -103 t-103 -249v-934zM600 1817q0 38 23 67q8 10 108 127q30 41 82 41q44 0 74.5 -31t30.5 -71q0 -38 -27 -72l-111 -129q-30 -37 -80 -37q-44 0 -72 31t-28 74z" />
<glyph unicode="&#xca;" horiz-adv-x="1556" d="M0 352v934q0 146 103 249t249 103h932q43 0 74 -31t31 -75q0 -42 -31.5 -74.5t-73.5 -32.5h-932q-57 0 -98 -41t-41 -98v-346h1047q44 0 74 -31t30 -73q0 -43 -30 -75t-74 -32h-1047v-377q0 -57 41 -99t98 -42h932q41 0 74 -32t33 -73q0 -43 -32.5 -74.5t-74.5 -31.5 h-932q-146 0 -249 103t-103 249zM523.5 1809q-5.5 41 19.5 73l121 160q33 39 79 39q51 0 78 -39l121 -160q26 -33 19.5 -74t-37.5 -63q-33 -25 -72.5 -19.5t-63.5 35.5l-45 60q-9 -10 -22.5 -30t-18.5 -26q-28 -31 -68 -37.5t-73 17.5q-32 23 -37.5 64z" />
<glyph unicode="&#xcb;" horiz-adv-x="1556" d="M0 352q0 -146 103 -249t249 -103h932q42 0 74.5 31.5t32.5 74.5q0 41 -33 73t-74 32h-932q-57 0 -98 42t-41 99v377h1047q44 0 74 32t30 75q0 42 -30 73t-74 31h-1047v346q0 57 41 98t98 41h932q42 0 73.5 32.5t31.5 74.5q0 44 -31 75t-74 31h-932q-146 0 -249 -103 t-103 -249v-934zM410 1825v65q0 43 29.5 73t72.5 30q42 0 72 -30.5t30 -72.5v-65q0 -40 -30.5 -71.5t-71.5 -31.5q-42 0 -72 31t-30 72zM858 1825v65q0 43 30 73t73 30q42 0 73 -30.5t31 -72.5v-65q0 -40 -31.5 -71.5t-72.5 -31.5q-42 0 -72.5 31.5t-30.5 71.5z" />
<glyph unicode="&#xcc;" horiz-adv-x="366" d="M-45 1946q0 42 30 74t74 32q54 0 80 -39l111 -129q22 -28 22 -67q0 -44 -29 -74.5t-73 -30.5q-50 0 -80 37l-113 129q-22 28 -22 68zM0 106q0 -44 31 -75t75 -31q42 0 74.5 31.5t32.5 74.5v1426q0 43 -32.5 74.5t-74.5 31.5q-44 0 -75 -31t-31 -75v-1426z" />
<glyph unicode="&#xcd;" horiz-adv-x="366" d="M-51 1817q0 39 22 67q21 25 61.5 72t47.5 55q30 41 82 41q43 0 73.5 -31t30.5 -71q0 -39 -26 -72l-111 -129q-30 -37 -80 -37q-44 0 -72 31t-28 74zM0 106q0 -44 31 -75t75 -31q42 0 74.5 31.5t32.5 74.5v1426q0 43 -32.5 74.5t-74.5 31.5q-44 0 -75 -31t-31 -75v-1426z " />
<glyph unicode="&#xce;" horiz-adv-x="366" d="M-115.5 1809q-5.5 41 19.5 73l121 160q33 39 79 39q51 0 78 -39l121 -160q26 -33 19.5 -74t-37.5 -63q-33 -25 -72 -19.5t-63 35.5l-46 60q-9 -10 -22.5 -30t-18.5 -26q-28 -31 -68 -37.5t-73 17.5q-32 23 -37.5 64zM0 106v1426q0 44 31 75t75 31q42 0 74.5 -31.5 t32.5 -74.5v-1426q0 -43 -32.5 -74.5t-74.5 -31.5q-44 0 -75 31t-31 75z" />
<glyph unicode="&#xcf;" horiz-adv-x="366" d="M-162 1819v65q0 43 30 73t73 30q41 0 71.5 -30.5t30.5 -72.5v-65q0 -40 -30.5 -71.5t-71.5 -31.5q-42 0 -72.5 31.5t-30.5 71.5zM0 106q0 -44 31 -75t75 -31q42 0 74.5 31.5t32.5 74.5v1426q0 43 -32.5 74.5t-74.5 31.5q-44 0 -75 -31t-31 -75v-1426zM150 1819v65 q0 43 29.5 73t72.5 30q42 0 73 -30.5t31 -72.5v-65q0 -40 -31.5 -71.5t-72.5 -31.5q-42 0 -72 31t-30 72z" />
<glyph unicode="&#xd0;" horiz-adv-x="1689" d="M-227 795q0 45 30.5 75.5t75.5 30.5h92v633q0 42 31.5 74t75.5 32h1057q146 0 250 -103t104 -249v-934q0 -146 -104 -249t-250 -103h-1057q-45 0 -76 31t-31 76v581h-92q-45 0 -75.5 31t-30.5 74zM182 213h953q58 0 99.5 42t41.5 99v934q0 57 -41.5 98t-99.5 41h-953 v-526h422q46 0 76.5 -30.5t30.5 -75.5q0 -43 -31 -74t-76 -31h-422v-477z" />
<glyph unicode="&#xd1;" horiz-adv-x="1728" d="M0 106v1180q0 146 103 249t249 103h852q146 0 249 -103t103 -249v-1180q0 -45 -30.5 -75.5t-75.5 -30.5q-42 0 -73 31t-31 75v1180q0 58 -41.5 99.5t-100.5 41.5h-852q-60 0 -101.5 -41t-41.5 -100v-1180q0 -44 -30.5 -75t-74.5 -31t-74 31t-30 75zM347 1830.5 q13 41.5 50 61.5q109 62 234 62q92 0 168 -33h-2q50 -23 116 -23q81 0 140 33q38 21 79.5 9t61.5 -50q20 -37 7.5 -78t-48.5 -63q-103 -59 -238 -59q-105 0 -198 41q-43 16 -84 16q-65 0 -137 -37q-38 -21 -80 -9t-62 50t-7 79.5z" />
<glyph unicode="&#xd2;" horiz-adv-x="1814" d="M0 352v934q0 146 103 249t249 103h922q146 0 249 -103t103 -249v-934q0 -146 -103 -249t-249 -103h-922q-146 0 -249 103t-103 249zM213 352q0 -57 41 -99t98 -42h922q58 0 99.5 42t41.5 99v934q0 57 -41.5 98t-99.5 41h-922q-57 0 -98 -41t-41 -98v-934zM670 1923 q0 41 30 74t74 33q54 0 80 -39q16 -19 34.5 -40.5t41.5 -48t35 -40.5q22 -28 22 -68q0 -43 -29 -73.5t-73 -30.5q-51 0 -80 36l-113 129q-22 27 -22 68z" />
<glyph unicode="&#xd3;" horiz-adv-x="1814" d="M0 352v934q0 146 103 249t249 103h922q146 0 249 -103t103 -249v-934q0 -146 -103 -249t-249 -103h-922q-146 0 -249 103t-103 249zM213 352q0 -57 41 -99t98 -42h922q58 0 99.5 42t41.5 99v934q0 57 -41.5 98t-99.5 41h-922q-57 0 -98 -41t-41 -98v-934zM659 1800 q0 39 23 68q21 25 61.5 72t47.5 55q30 41 81 41q43 0 74 -31.5t31 -71.5q0 -36 -27 -71l-110 -129q-30 -37 -80 -37q-45 0 -73 30t-28 74z" />
<glyph unicode="&#xd4;" horiz-adv-x="1814" d="M0 352v934q0 146 103 249t249 103h922q146 0 249 -103t103 -249v-934q0 -146 -103 -249t-249 -103h-922q-146 0 -249 103t-103 249zM213 352q0 -57 41 -99t98 -42h922q58 0 99.5 42t41.5 99v934q0 57 -41.5 98t-99.5 41h-922q-57 0 -98 -41t-41 -98v-934zM554 1774 q-6 41 19 73l121 160q33 39 80 39q51 0 78 -39l121 -160q25 -33 19 -74t-38 -63q-33 -25 -72 -19.5t-63 35.5l-45 60q-9 -10 -23 -29.5t-18 -25.5q-28 -32 -68 -38.5t-73 17.5q-32 23 -38 64z" />
<glyph unicode="&#xd5;" horiz-adv-x="1814" d="M0 352v934q0 146 103 249t249 103h922q146 0 249 -103t103 -249v-934q0 -146 -103 -249t-249 -103h-922q-146 0 -249 103t-103 249zM213 352q0 -57 41 -99t98 -42h922q58 0 99.5 42t41.5 99v934q0 57 -41.5 98t-99.5 41h-922q-57 0 -98 -41t-41 -98v-934zM388 1877.5 q13 41.5 50 61.5q109 62 234 62q92 0 168 -33h-2q48 -22 116 -22q83 0 140 32q38 21 79.5 9t61.5 -50q20 -37 7.5 -78t-48.5 -63q-103 -59 -238 -59q-105 0 -198 41q-43 16 -84 16q-65 0 -137 -37q-38 -21 -80 -9t-62 50t-7 79.5z" />
<glyph unicode="&#xd6;" horiz-adv-x="1771" d="M-25 354v934q0 146 103.5 249t249.5 103h921q146 0 249.5 -103t103.5 -249v-934q0 -146 -103.5 -249t-249.5 -103h-921q-146 0 -249.5 103t-103.5 249zM188 354q0 -57 41.5 -99t98.5 -42h921q58 0 100 42t42 99v934q0 57 -42 98t-100 41h-921q-57 0 -98.5 -41t-41.5 -98 v-934zM459 1700v67q0 44 31 75.5t75 31.5q42 0 74.5 -31.5t32.5 -75.5v-67q0 -41 -33 -74t-74 -33q-43 0 -74.5 32.5t-31.5 74.5zM922 1700v67q0 44 31 75.5t75 31.5q42 0 74.5 -31.5t32.5 -75.5v-67q0 -41 -33 -74t-74 -33q-43 0 -74.5 32.5t-31.5 74.5z" />
<glyph unicode="&#xd7;" horiz-adv-x="1024" d="M68 313l276 279l-276 276l145 146l276 -277l277 277l145 -146l-276 -276l276 -279l-145 -145l-277 276l-276 -276z" />
<glyph unicode="&#xd8;" horiz-adv-x="1775" d="M-23 328v934q0 146 103.5 249t249.5 103h846q6 9 18 29.5t18 29.5q23 35 66.5 44.5t81.5 -13.5q30 -20 41.5 -55.5t-0.5 -69.5q90 -43 146.5 -130t56.5 -187v-934q0 -146 -103.5 -249.5t-249.5 -103.5h-862q-10 -18 -34 -55.5t-29 -44.5q-25 -38 -67 -47t-79 16 q-37 23 -46 67t16 79v-2q7 13 7 14t7 14q-83 44 -135 128.5t-52 183.5zM190 328q0 -45 25 -81.5t66 -49.5q158 249 423 668.5t338 535.5h-712q-57 0 -98.5 -41t-41.5 -98v-934zM522 186h729q59 0 100.5 42t41.5 100v934q0 51 -29.5 87.5t-77.5 47.5q-109 -172 -361.5 -573.5 t-402.5 -637.5z" />
<glyph unicode="&#xd9;" horiz-adv-x="1675" d="M-2 354v1180q0 44 30 75t74 31t74.5 -31t30.5 -75v-1180q0 -59 41.5 -100t101.5 -41h854q57 0 99.5 41.5t42.5 99.5v1180q0 44 31 75t73 31q44 0 75 -31t31 -75v-1180q0 -146 -103 -249t-249 -103h-854q-146 0 -249 103t-103 249zM587.5 1781.5q3.5 42.5 37.5 71.5v2 q33 28 78.5 25.5t74.5 -37.5q19 -22 57 -66.5t56 -66.5q26 -34 23.5 -79.5t-33.5 -71.5q-34 -29 -79.5 -26t-74.5 36l-115 133q-28 37 -24.5 79.5z" />
<glyph unicode="&#xda;" horiz-adv-x="1683" d="M0 354v1180q0 44 30 75t74 31t74.5 -31t30.5 -75v-1180q0 -59 41.5 -100t101.5 -41h854q57 0 99.5 41.5t42.5 99.5v1180q0 44 31 75t73 31q44 0 75.5 -31t31.5 -75v-1180q0 -146 -103.5 -249t-249.5 -103h-854q-146 0 -249 103t-103 249zM642.5 1630.5 q-3.5 45.5 23.5 79.5q19 23 56.5 66t55.5 65q29 36 77.5 39.5t78.5 -27.5q34 -29 36.5 -71.5t-26.5 -79.5l-115 -133q-30 -33 -73.5 -36t-77.5 26q-32 26 -35.5 71.5z" />
<glyph unicode="&#xdb;" horiz-adv-x="1744" d="M0 352v1180q0 44 30 75t74 31t74.5 -31t30.5 -75v-1180q0 -59 41.5 -100t101.5 -41h854q57 0 99.5 41.5t42.5 99.5v1180q0 44 31 75t73 31q44 0 75.5 -31t31.5 -75v-1180q0 -146 -103.5 -249t-249.5 -103h-854q-146 0 -249 103t-103 249zM556 1680q-6 41 19 73l121 160 q33 39 80 39q51 0 78 -39l121 -160q25 -33 19 -74t-38 -63q-33 -25 -72 -19.5t-63 35.5l-45 60q-9 -10 -22.5 -30t-18.5 -26q-28 -31 -68 -37.5t-73 17.5q-32 23 -38 64z" />
<glyph unicode="&#xdc;" horiz-adv-x="1724" d="M-2 354v1180q0 44 30 75t74 31t74.5 -31t30.5 -75v-1180q0 -59 41.5 -100t101.5 -41h854q57 0 99.5 41.5t42.5 99.5v1180q0 44 31 75t73 31q44 0 75 -31t31 -75v-1180q0 -146 -103 -249t-249 -103h-854q-146 0 -249 103t-103 249zM467 1698v67q0 44 31 75.5t75 31.5 q42 0 74.5 -31.5t32.5 -75.5v-67q0 -41 -33 -74t-74 -33q-43 0 -74.5 32.5t-31.5 74.5zM930 1698v67q0 44 31 75.5t75 31.5q42 0 74.5 -31.5t32.5 -75.5v-67q0 -41 -33 -74t-74 -33q-43 0 -74.5 32.5t-31.5 74.5z" />
<glyph unicode="&#xdd;" horiz-adv-x="1110" d="M0 1085v449q0 44 31 75t75 31q20 0 39.5 -8.5t34.5 -22.5t24 -33.5t9 -41.5v-449q0 -58 41 -99.5t98 -41.5h797q59 0 100 41.5t41 99.5v449q0 44 32 75t75 31q44 0 74 -31t30 -75v-449q0 -96 -47 -177t-128 -128t-177 -47h-264v-624q0 -44 -30.5 -75.5t-74.5 -31.5 t-74 31t-30 76v624h-324q-96 0 -177 47t-128 128t-47 177zM591.5 1525q-3.5 45 22.5 79q12 15 28 33t28.5 32.5t28.5 32.5t28 33q29 37 77.5 41t78.5 -27q34 -31 36.5 -74t-26.5 -80l-115 -133q-28 -33 -72.5 -36t-78.5 26q-32 28 -35.5 73z" />
<glyph unicode="&#xde;" horiz-adv-x="1110" />
<glyph unicode="&#xdf;" horiz-adv-x="980" />
<glyph unicode="&#xe0;" d="M0 336q0 141 99 239.5t239 98.5h713v55q0 57 -40 96t-96 39h-804q-43 0 -73 30t-30 71t30 70.5t73 29.5h804q139 0 237.5 -98.5t98.5 -237.5v-393q0 -139 -97.5 -237.5t-235.5 -98.5h-582q-139 0 -237.5 99t-98.5 237zM203 336q0 -54 39 -93.5t94 -39.5h582q55 0 94 39.5 t39 93.5v135h-713q-57 0 -96 -39.5t-39 -95.5zM473 1372q0 42 30.5 74.5t74.5 32.5q53 0 79 -39q16 -19 34.5 -40.5t41.5 -48t35 -40.5q23 -30 23 -68q0 -44 -29 -74t-74 -30q-50 0 -80 37l-112 129q-23 29 -23 67z" />
<glyph unicode="&#xe1;" d="M0 336q0 141 99 239.5t239 98.5h713v55q0 57 -40 96t-96 39h-804q-43 0 -73 30t-30 71t30 70.5t73 29.5h804q139 0 237.5 -98.5t98.5 -237.5v-393q0 -139 -97.5 -237.5t-235.5 -98.5h-582q-139 0 -237.5 99t-98.5 237zM203 336q0 -54 39 -93.5t94 -39.5h582q55 0 94 39.5 t39 93.5v135h-713q-57 0 -96 -39.5t-39 -95.5zM444 1253q0 39 23 68q8 10 108 127q30 41 82 41q43 0 74 -31.5t31 -71.5q0 -36 -27 -71l-110 -129q-30 -37 -80 -37q-44 0 -72.5 30.5t-28.5 73.5z" />
<glyph unicode="&#xe2;" d="M0 336q0 141 99 239.5t239 98.5h713v55q0 57 -40 96t-96 39h-804q-43 0 -73 30t-30 71t30 70.5t73 29.5h804q139 0 237.5 -98.5t98.5 -237.5v-393q0 -139 -97.5 -237.5t-235.5 -98.5h-582q-139 0 -237.5 99t-98.5 237zM203 336q0 -54 39 -93.5t94 -39.5h582q55 0 94 39.5 t39 93.5v135h-713q-57 0 -96 -39.5t-39 -95.5zM368 1250q-6 41 19 73l121 160q33 39 80 39q51 0 78 -39l120 -160q26 -33 19.5 -74t-37.5 -63q-33 -25 -72 -19.5t-63 35.5l-45 60q-9 -10 -22.5 -30t-18.5 -26q-28 -31 -68 -37.5t-73 17.5q-32 23 -38 64z" />
<glyph unicode="&#xe3;" d="M0 336q0 141 99 239.5t239 98.5h713v55q0 57 -40 96t-96 39h-804q-43 0 -73 30t-30 71t30 70.5t73 29.5h804q139 0 237.5 -98.5t98.5 -237.5v-393q0 -139 -97.5 -237.5t-235.5 -98.5h-582q-139 0 -237.5 99t-98.5 237zM188 1318.5q13 41.5 50 61.5q109 62 233 62 q92 0 168 -33h-2q50 -23 117 -23q80 0 139 33q38 21 79.5 9t61.5 -50q20 -37 7.5 -78t-48.5 -63q-103 -59 -237 -59q-106 0 -199 41q-43 16 -84 16q-65 0 -137 -37q-38 -21 -79.5 -9t-61.5 50t-7 79.5zM203 336q0 -54 39 -93.5t94 -39.5h582q55 0 94 39.5t39 93.5v135h-713 q-57 0 -96 -39.5t-39 -95.5z" />
<glyph unicode="&#xe4;" d="M0 336q0 141 99 239.5t239 98.5h713v55q0 57 -40 96t-96 39h-804q-43 0 -73 30t-30 71t30 70.5t73 29.5h804q139 0 237.5 -98.5t98.5 -237.5v-393q0 -139 -97.5 -237.5t-235.5 -98.5h-582q-139 0 -237.5 99t-98.5 237zM203 336q0 -54 39 -93.5t94 -39.5h582q55 0 94 39.5 t39 93.5v135h-713q-57 0 -96 -39.5t-39 -95.5zM272 1278v65q0 43 30 73t73 30q41 0 71.5 -30t30.5 -73v-65q0 -40 -30.5 -71t-71.5 -31q-42 0 -72.5 31t-30.5 71zM721 1278v65q0 43 29.5 73t72.5 30q42 0 73.5 -30.5t31.5 -72.5v-65q0 -40 -32 -71t-73 -31q-42 0 -72 31 t-30 71z" />
<glyph unicode="&#xe5;" d="M0 336q0 141 99 239.5t239 98.5h713v55q0 57 -40 96t-96 39h-804q-43 0 -73 30t-30 71t30 70.5t73 29.5h804q139 0 237.5 -98.5t98.5 -237.5v-393q0 -139 -97.5 -237.5t-235.5 -98.5h-582q-139 0 -237.5 99t-98.5 237zM203 336q0 -54 39 -93.5t94 -39.5h582q55 0 94 39.5 t39 93.5v135h-713q-57 0 -96 -39.5t-39 -95.5zM397 1335q0 45 19 84v-2q11 37 42 68t70 47h-2q39 16 86 16q43 0 82 -16h-2q91 -32 115 -117v2q18 -37 18 -82q0 -49 -18 -84v2q-10 -34 -43 -67q-37 -37 -70 -47h2q-35 -17 -84 -17q-91 0 -153 61.5t-62 151.5zM571 1335 q0 -13 13.5 -26t27.5 -13q15 0 27 13t12 26t-13 26t-26 13q-14 0 -27.5 -12.5t-13.5 -26.5z" />
<glyph unicode="&#xe6;" horiz-adv-x="2025" d="M0 336q0 141 99 239.5t239 98.5h489v65q-5 53 -43 89t-90 36h-581q-43 0 -73 30t-30 71t30 70.5t73 29.5h581q64 0 128 -26.5t110 -69.5q47 41 109.5 67.5t125.5 26.5h353q141 0 241.5 -100t100.5 -242v-211q0 -43 -30.5 -72.5t-74.5 -29.5h-727v-84q0 -52 40.5 -86.5 t96.5 -34.5h555q41 0 72 -29.5t31 -71.5t-31 -72t-72 -30h-555q-66 0 -128.5 25.5t-108.5 68.5q-45 -42 -108 -68t-126 -26h-360q-139 0 -237.5 99t-98.5 237zM205 336q0 -54 38.5 -93.5t92.5 -39.5h360q51 0 88.5 35t42.5 86v147h-489q-55 0 -94 -39.5t-39 -95.5zM1030 610 h627v111q0 57 -40 97t-97 40h-353q-55 0 -94.5 -37.5t-42.5 -91.5v-119z" />
<glyph unicode="&#xe7;" horiz-adv-x="1415" d="M0 342v377q0 143 101 243.5t243 100.5h793q43 0 73.5 -30.5t30.5 -74.5q0 -40 -31 -71t-73 -31h-793q-57 0 -97 -40t-40 -97v-377q0 -57 39.5 -97t97.5 -40h791q41 0 70.5 -30.5t29.5 -74.5q0 -43 -29.5 -72.5t-70.5 -29.5h-371v-68q0 -34 -33 -71q-33 -33 -74 -33 q0 -4 6.5 -8t12.5 -4h8q39 0 71.5 -33t32.5 -70q0 -42 -31 -72t-71 -30q-95 0 -164 63t-69 160q0 103 90 166h-199q-142 0 -243 101t-101 243z" />
<glyph unicode="&#xe8;" horiz-adv-x="1429" d="M0 340v385q0 141 99.5 240.5t240.5 99.5h578q140 0 239.5 -99.5t99.5 -240.5v-215q0 -43 -29.5 -72.5t-72.5 -29.5h-954v-68q0 -56 40 -96.5t97 -40.5h782q41 0 72 -29.5t31 -71.5t-31 -72t-72 -30h-780q-141 0 -240.5 99.5t-99.5 240.5zM201 610h854v117q0 57 -40 97 t-97 40h-580q-57 0 -97 -40t-40 -97v-117zM449 1343q0 42 30 74.5t74 32.5q54 0 80 -39q17 -22 110 -129q23 -30 23 -68q0 -43 -29.5 -73.5t-72.5 -30.5q-50 0 -80 37l-113 129q-22 28 -22 67z" />
<glyph unicode="&#xe9;" horiz-adv-x="1429" d="M0 340v385q0 141 99.5 240.5t240.5 99.5h578q140 0 239.5 -99.5t99.5 -240.5v-215q0 -43 -29.5 -72.5t-72.5 -29.5h-954v-68q0 -56 40 -96.5t97 -40.5h782q41 0 72 -29.5t31 -71.5t-31 -72t-72 -30h-780q-141 0 -240.5 99.5t-99.5 240.5zM201 610h854v117q0 57 -40 97 t-97 40h-580q-57 0 -97 -40t-40 -97v-117zM479 1212q0 39 23 68q8 10 108 127q30 41 82 41q43 0 74 -31t31 -71q0 -38 -27 -72l-111 -129q-30 -37 -79 -37q-44 0 -72.5 30.5t-28.5 73.5z" />
<glyph unicode="&#xea;" horiz-adv-x="1429" d="M0 340v385q0 141 99.5 240.5t240.5 99.5h578q140 0 239.5 -99.5t99.5 -240.5v-215q0 -43 -29.5 -72.5t-72.5 -29.5h-954v-68q0 -56 40 -96.5t97 -40.5h782q41 0 72 -29.5t31 -71.5t-31 -72t-72 -30h-780q-141 0 -240.5 99.5t-99.5 240.5zM201 610h854v117q0 57 -40 97 t-97 40h-580q-57 0 -97 -40t-40 -97v-117zM400.5 1207q-5.5 41 19.5 73l121 160q33 39 80 39q50 0 77 -39l121 -160q26 -33 19.5 -74t-37.5 -63q-33 -25 -72 -19.5t-63 35.5l-45 60q-9 -10 -22.5 -30t-18.5 -26q-28 -31 -68.5 -37.5t-73.5 17.5q-32 23 -37.5 64z" />
<glyph unicode="&#xeb;" horiz-adv-x="1429" d="M0 340v385q0 141 99.5 240.5t240.5 99.5h578q140 0 239.5 -99.5t99.5 -240.5v-215q0 -43 -29.5 -72.5t-72.5 -29.5h-954v-68q0 -56 40 -96.5t97 -40.5h782q41 0 72 -29.5t31 -71.5t-31 -72t-72 -30h-780q-141 0 -240.5 99.5t-99.5 240.5zM201 610h854v117q0 57 -40 97 t-97 40h-580q-57 0 -97 -40t-40 -97v-117zM299 1219v65q0 43 29.5 72.5t72.5 29.5q42 0 72.5 -30t30.5 -72v-65q0 -40 -31 -71.5t-72 -31.5q-42 0 -72 31t-30 72zM748 1219v65q0 43 29.5 72.5t72.5 29.5q42 0 73 -30t31 -72v-65q0 -40 -31.5 -71.5t-72.5 -31.5q-42 0 -72 31 t-30 72z" />
<glyph unicode="&#xec;" horiz-adv-x="491" d="M0 1346q0 41 30.5 73.5t73.5 32.5q54 0 80 -39q16 -19 34.5 -40.5t41.5 -48t35 -40.5q22 -28 22 -67q0 -44 -29 -74.5t-73 -30.5q-50 0 -80 37l-112 129q-23 29 -23 68zM106 102v854q0 43 30.5 73t74.5 30q40 0 71 -30.5t31 -72.5v-854q0 -42 -31 -72t-71 -30 q-44 0 -74.5 29.5t-30.5 72.5z" />
<glyph unicode="&#xed;" horiz-adv-x="495" d="M2 1202q0 39 23 68q9 10 108 127q30 41 82 41q43 0 73.5 -31.5t30.5 -71.5q0 -38 -26 -71l-111 -129q-30 -37 -80 -37q-44 0 -72 30.5t-28 73.5zM53 102v854q0 43 30.5 73t74.5 30q40 0 71 -30.5t31 -72.5v-854q0 -42 -31 -72t-71 -30q-44 0 -74.5 29.5t-30.5 72.5z" />
<glyph unicode="&#xee;" horiz-adv-x="614" d="M1 1164q-6 41 19 73l121 160q33 39 80 39q51 0 78 -39l121 -160q25 -33 19 -74t-38 -63q-33 -25 -72 -19.5t-63 35.5l-45 60q-9 -10 -22.5 -30t-18.5 -26q-28 -31 -68 -37.5t-73 17.5q-32 23 -38 64zM117 102v854q0 43 30 73t74 30q40 0 71.5 -30.5t31.5 -72.5v-854 q0 -42 -31 -72t-72 -30q-44 0 -74 29.5t-30 72.5z" />
<glyph unicode="&#xef;" horiz-adv-x="679" d="M0 1223v65q0 43 29.5 73t72.5 30q42 0 72.5 -30.5t30.5 -72.5v-65q0 -40 -31 -71.5t-72 -31.5q-42 0 -72 31t-30 72zM139 102v854q0 43 30.5 73t74.5 30q40 0 71 -30.5t31 -72.5v-854q0 -42 -31 -72t-71 -30q-44 0 -74.5 29.5t-30.5 72.5zM299 1223v65q0 43 29.5 73 t72.5 30q42 0 73.5 -30.5t31.5 -72.5v-65q0 -40 -32 -71.5t-73 -31.5q-42 0 -72 31t-30 72z" />
<glyph unicode="&#xf0;" horiz-adv-x="937" />
<glyph unicode="&#xf1;" horiz-adv-x="1392" d="M0 102v861q0 43 28.5 71.5t71.5 30.5h727q142 0 242 -100.5t100 -241.5v-621q0 -43 -29.5 -72.5t-72.5 -29.5q-41 0 -70.5 29.5t-29.5 72.5v621q0 57 -41 97t-99 40h-622v-758q0 -42 -31 -72t-72 -30q-43 0 -72.5 29.5t-29.5 72.5zM99.5 1288q13.5 41 50.5 62 q107 61 233 61q92 0 168 -33h-2q48 -22 117 -22q80 0 139 33q38 21 79.5 9t61.5 -50q20 -37 7.5 -78.5t-48.5 -63.5q-103 -59 -237 -59q-106 0 -199 41q-43 16 -84 16q-65 0 -137 -37q-38 -21 -80 -9t-62 50q-20 39 -6.5 80z" />
<glyph unicode="&#xf2;" horiz-adv-x="1585" d="M0 344v379q0 141 100.5 241.5t241.5 100.5h707q142 0 243 -100.5t101 -241.5v-379q0 -141 -101 -241.5t-243 -100.5h-707q-141 0 -241.5 100.5t-100.5 241.5zM207 344q0 -57 39.5 -97t95.5 -40h707q57 0 97 40t40 97v383q0 57 -40 97t-97 40h-707q-56 0 -95.5 -40 t-39.5 -97v-383zM502 1354q0 42 30 74t74 32q54 0 80 -39q16 -19 34.5 -40.5t41.5 -48t35 -40.5q22 -28 22 -67q0 -43 -29 -74t-73 -31q-50 0 -80 37l-113 129q-22 27 -22 68z" />
<glyph unicode="&#xf3;" horiz-adv-x="1566" d="M0 344v379q0 141 100.5 241.5t241.5 100.5h707q142 0 243 -100.5t101 -241.5v-379q0 -141 -101 -241.5t-243 -100.5h-707q-141 0 -241.5 100.5t-100.5 241.5zM207 344q0 -57 39.5 -97t95.5 -40h707q57 0 97 40t40 97v383q0 57 -40 97t-97 40h-707q-56 0 -95.5 -40 t-39.5 -97v-383zM512 1217q0 38 23 67q8 10 108 127q30 41 82 41q43 0 73.5 -31t30.5 -71q0 -39 -26 -72l-111 -129q-30 -37 -80 -37q-44 0 -72 31t-28 74z" />
<glyph unicode="&#xf4;" horiz-adv-x="1585" d="M0 344v379q0 141 100.5 241.5t241.5 100.5h707q142 0 243 -100.5t101 -241.5v-379q0 -141 -101 -241.5t-243 -100.5h-707q-141 0 -241.5 100.5t-100.5 241.5zM207 344q0 -57 39.5 -97t95.5 -40h707q57 0 97 40t40 97v383q0 57 -40 97t-97 40h-707q-56 0 -95.5 -40 t-39.5 -97v-383zM474.5 1229.5q-5.5 41.5 19.5 73.5l120 159q33 39 80 39q51 0 78 -39l121 -159q26 -33 19 -74.5t-38 -63.5q-33 -25 -72 -19t-63 36l-45 59q-9 -10 -23 -29.5t-18 -25.5q-28 -32 -68 -38.5t-73 17.5q-32 23 -37.5 64.5z" />
<glyph unicode="&#xf5;" horiz-adv-x="1568" d="M0 344v379q0 141 100.5 241.5t241.5 100.5h707q142 0 243 -100.5t101 -241.5v-379q0 -141 -101 -241.5t-243 -100.5h-707q-141 0 -241.5 100.5t-100.5 241.5zM207 344q0 -57 39.5 -97t95.5 -40h707q57 0 97 40t40 97v383q0 57 -40 97t-97 40h-707q-56 0 -95.5 -40 t-39.5 -97v-383zM243 1277.5q13 41.5 50 61.5q109 62 233 62q92 0 168 -33h-2q48 -22 117 -22q82 0 139 32q38 21 80 9t62 -50q20 -37 7.5 -78t-48.5 -63q-103 -59 -238 -59q-106 0 -199 41q-43 16 -84 16q-65 0 -137 -37q-38 -21 -79.5 -9t-61.5 50t-7 79.5z" />
<glyph unicode="&#xf6;" horiz-adv-x="1585" d="M0 344v379q0 141 100.5 241.5t241.5 100.5h707q142 0 243 -100.5t101 -241.5v-379q0 -141 -101 -241.5t-243 -100.5h-707q-141 0 -241.5 100.5t-100.5 241.5zM207 344q0 -57 39.5 -97t95.5 -40h707q57 0 97 40t40 97v383q0 57 -40 97t-97 40h-707q-56 0 -95.5 -40 t-39.5 -97v-383zM358 1235v65q0 43 30 73t73 30q41 0 71.5 -30.5t30.5 -72.5v-65q0 -40 -30.5 -71t-71.5 -31q-42 0 -72.5 31t-30.5 71zM807 1235v65q0 43 29.5 73t72.5 30q42 0 73.5 -30.5t31.5 -72.5v-65q0 -40 -32 -71t-73 -31q-42 0 -72 31t-30 71z" />
<glyph unicode="&#xf7;" horiz-adv-x="1052" d="M0 598q0 42 31 72t73 30h674q43 0 72 -29.5t29 -72.5t-29 -72.5t-72 -29.5h-674q-42 0 -73 30t-31 72zM342 190v142q0 43 29 72.5t73 29.5q41 0 72 -30t31 -72v-142q0 -40 -31.5 -71t-71.5 -31q-43 0 -72.5 30.5t-29.5 71.5zM342 879v139q0 44 29 74t73 30q41 0 72 -30.5 t31 -73.5v-139q0 -40 -31.5 -71.5t-71.5 -31.5q-43 0 -72.5 31t-29.5 72z" />
<glyph unicode="&#xf8;" horiz-adv-x="1566" d="M0 342v381q0 142 100.5 242t241.5 100h707q110 0 200 -64l13 11q38 41 92 41q41 0 67.5 -30.5t26.5 -70.5q0 -34 -18 -61l-62 -45q23 -56 23 -123v-381q0 -141 -100.5 -241.5t-241.5 -100.5h-707q-50 0 -96 12l-23 -20q-31 -39 -78 -39q-45 0 -74.5 31.5t-29.5 74.5 q0 34 14 56l19 14q-74 90 -74 213zM205 342q0 -44 33 -90q156 116 423 313.5t398 294.5h-717q-56 0 -96.5 -40t-40.5 -97v-381zM504 205h545q57 0 97 40.5t40 96.5v367q-221 -161 -682 -504z" />
<glyph unicode="&#xf9;" horiz-adv-x="1439" d="M0 342v621q0 42 30 72t72 30t73.5 -30.5t31.5 -71.5v-621q0 -57 39.5 -97t95.5 -40h662v756q0 42 30 72t72 30t72 -30t30 -72v-859q0 -40 -30 -71t-72 -31h-764q-141 0 -241.5 100.5t-100.5 241.5zM391 1219q0 41 30.5 73.5t74.5 32.5q53 0 79 -39l111 -129 q23 -30 23 -67q0 -43 -29.5 -74t-73.5 -31q-50 0 -80 37l-112 129q-23 29 -23 68z" />
<glyph unicode="&#xfa;" horiz-adv-x="1439" d="M0 342v621q0 42 30 72t72 30t73.5 -30.5t31.5 -71.5v-621q0 -57 39.5 -97t95.5 -40h662v756q0 42 30 72t72 30t72 -30t30 -72v-859q0 -40 -30 -71t-72 -31h-764q-141 0 -241.5 100.5t-100.5 241.5zM461 1090q0 40 22 67q21 25 61.5 72t47.5 55q30 41 82 41q42 0 73 -31.5 t31 -70.5t-26 -72l-111 -129q-30 -37 -80 -37q-44 0 -72 31t-28 74z" />
<glyph unicode="&#xfb;" horiz-adv-x="1419" d="M0 342v621q0 42 30 72t72 30t73.5 -30.5t31.5 -71.5v-621q0 -57 39.5 -97t95.5 -40h662v756q0 42 30 72t72 30t72 -30t30 -72v-859q0 -40 -30 -71t-72 -31h-764q-141 0 -241.5 100.5t-100.5 241.5zM386.5 1123q-5.5 41 19.5 73l120 160q33 39 80 39q51 0 78 -39l121 -160 q25 -33 19 -74t-38 -63q-33 -25 -72 -19.5t-63 35.5l-45 60q-9 -10 -22.5 -30t-18.5 -26q-28 -31 -68 -37.5t-73 17.5q-32 23 -37.5 64z" />
<glyph unicode="&#xfc;" horiz-adv-x="1439" d="M0 342v621q0 42 30 72t72 30t73.5 -30.5t31.5 -71.5v-621q0 -57 39.5 -97t95.5 -40h662v756q0 42 30 72t72 30t72 -30t30 -72v-859q0 -40 -30 -71t-72 -31h-764q-141 0 -241.5 100.5t-100.5 241.5zM270 1143v65q0 43 30 73t73 30q41 0 71.5 -30.5t30.5 -72.5v-65 q0 -40 -30.5 -71.5t-71.5 -31.5q-42 0 -72.5 31.5t-30.5 71.5zM719 1143v65q0 43 29.5 73t72.5 30q42 0 73.5 -30.5t31.5 -72.5v-65q0 -40 -32 -71.5t-73 -31.5q-42 0 -72 31t-30 72z" />
<glyph unicode="&#xfd;" horiz-adv-x="1429" d="M0 342v623q0 43 29 72.5t73 29.5q41 0 72 -30t31 -72v-623q0 -56 40 -96.5t97 -40.5h557q55 0 95 40.5t40 96.5v623q0 43 30.5 72.5t74.5 29.5q40 0 71 -30t31 -72v-1143q0 -142 -100.5 -242t-241.5 -100h-706q-44 0 -74.5 29.5t-30.5 70.5q0 44 30.5 74.5t74.5 30.5h706 q56 0 95.5 40t39.5 97v207q-71 -29 -135 -29h-557q-142 0 -242 100.5t-100 241.5zM475 1171q0 39 23 68q8 10 108 127q30 41 82 41q43 0 74 -31t31 -71q0 -37 -27 -72l-111 -129q-30 -37 -80 -37q-43 0 -71.5 30.5t-28.5 73.5z" />
<glyph unicode="&#xfe;" horiz-adv-x="1228" d="M-2 -375v1778q0 43 30 72.5t74 29.5q41 0 72 -30t31 -72v-365q71 27 135 27h369q141 0 241.5 -100t100.5 -242v-381q0 -141 -100.5 -241.5t-241.5 -100.5h-369q-66 0 -135 29v-404q0 -42 -31 -72t-72 -30q-44 0 -74 29.5t-30 72.5zM205 334q3 -54 42 -91.5t93 -37.5h369 q57 0 97 40.5t40 96.5v381q0 57 -40 97t-97 40h-369q-54 0 -93 -38t-42 -93v-395z" />
<glyph unicode="&#xff;" horiz-adv-x="1429" d="M0 342v623q0 43 29 72.5t73 29.5q41 0 72 -30t31 -72v-623q0 -56 40 -96.5t97 -40.5h557q55 0 95 40.5t40 96.5v623q0 43 30.5 72.5t74.5 29.5q40 0 71 -30t31 -72v-1143q0 -142 -100.5 -242t-241.5 -100h-706q-44 0 -74.5 29.5t-30.5 70.5q0 44 30.5 74.5t74.5 30.5h706 q56 0 95.5 40t39.5 97v207q-71 -29 -135 -29h-557q-142 0 -242 100.5t-100 241.5zM291 1159v66q0 43 29.5 72.5t72.5 29.5q42 0 72.5 -30t30.5 -72v-66q0 -40 -31 -71t-72 -31q-42 0 -72 31t-30 71zM739 1159v66q0 43 30 72.5t73 29.5q42 0 73 -30t31 -72v-66 q0 -40 -31.5 -71t-72.5 -31q-42 0 -72.5 31t-30.5 71z" />
<glyph unicode="&#x152;" horiz-adv-x="2625" d="M0 352v940q0 146 104 249.5t250 103.5h672q74 0 141 -29t115 -80q103 96 240 96h704q42 0 73.5 -30.5t31.5 -75.5q0 -41 -32 -73t-73 -32h-704q-59 0 -101.5 -41.5t-42.5 -99.5v-365h822q46 0 76 -30t30 -76q0 -42 -30.5 -73t-75.5 -31h-822v-363q0 -60 42.5 -101.5 t101.5 -41.5h704q42 0 73.5 -31.5t31.5 -75.5q0 -41 -32 -73.5t-73 -32.5h-704q-147 0 -254 110q-49 -42 -113.5 -69t-128.5 -27h-672q-146 0 -250 103t-104 249zM213 352q0 -57 41.5 -98t99.5 -41h672q59 0 101 41t42 98v940q0 57 -42.5 98.5t-100.5 41.5h-672 q-58 0 -99.5 -41.5t-41.5 -98.5v-940z" />
<glyph unicode="&#x153;" horiz-adv-x="2217" d="M-2 342v381q0 141 100.5 241.5t241.5 100.5h444q135 0 236 -98q101 98 240 98h372q140 0 240 -99.5t100 -240.5v-211q0 -43 -29.5 -72.5t-72.5 -29.5h-744q0 -85 -2 -95q11 -47 49 -78.5t87 -31.5h575q40 0 71 -30t31 -71q0 -42 -31 -72t-71 -30h-575q-140 0 -238 92 q-46 -45 -108.5 -70.5t-129.5 -25.5h-444q-141 0 -241.5 100.5t-100.5 241.5zM203 342q0 -57 40.5 -97t96.5 -40h444q56 0 96 40t40 97v387q-3 54 -42.5 92.5t-93.5 38.5h-444q-56 0 -96.5 -40t-40.5 -97v-381zM1126 614h643v111q0 57 -40 97t-97 40h-372q-49 0 -87 -31 t-47 -77v-140z" />
<glyph unicode="&#x178;" horiz-adv-x="1632" d="M0 1085v449q0 44 31 75t75 31q42 0 74.5 -31.5t32.5 -74.5v-449q0 -58 41 -99.5t98 -41.5h797q59 0 100 41t41 100v449q0 44 32 75t75 31q44 0 74 -31t30 -75v-449q0 -146 -103 -249t-249 -103h-264v-624q0 -44 -30.5 -75.5t-74.5 -31.5t-74 31t-30 76v624h-324 q-146 0 -249 103t-103 249zM412 1507v68q0 44 30 75t74 31q43 0 75 -31t32 -75v-68q0 -41 -32.5 -73.5t-74.5 -32.5q-43 0 -73.5 32t-30.5 74zM874 1507v68q0 44 30.5 75t74.5 31q43 0 74.5 -31t31.5 -75v-68q0 -42 -32 -74t-74 -32q-43 0 -74 32t-31 74z" />
<glyph unicode="&#x2c6;" horiz-adv-x="880" d="M200 1123q-6 41 19 73l121 160q33 39 80 39q51 0 78 -39l120 -160q26 -33 19.5 -74t-37.5 -63q-33 -25 -72 -19.5t-63 35.5l-45 60q-9 -10 -22.5 -30t-18.5 -26q-28 -31 -68 -37.5t-73 17.5q-32 23 -38 64z" />
<glyph unicode="&#x2dc;" horiz-adv-x="1492" d="M-154 1206q13 42 50 62q107 61 233 61q92 0 168 -33h-2q48 -22 117 -22q80 0 139 33q38 21 79.5 9t61.5 -50q20 -37 7.5 -78.5t-48.5 -63.5q-103 -59 -237 -59q-106 0 -199 41q-43 16 -84 16q-65 0 -137 -37q-38 -21 -79.5 -9t-61.5 50t-7 80z" />
<glyph unicode="&#x2000;" horiz-adv-x="1055" />
<glyph unicode="&#x2001;" horiz-adv-x="2111" />
<glyph unicode="&#x2002;" horiz-adv-x="1055" />
<glyph unicode="&#x2003;" horiz-adv-x="2111" />
<glyph unicode="&#x2004;" horiz-adv-x="703" />
<glyph unicode="&#x2005;" horiz-adv-x="527" />
<glyph unicode="&#x2006;" horiz-adv-x="351" />
<glyph unicode="&#x2007;" horiz-adv-x="351" />
<glyph unicode="&#x2008;" horiz-adv-x="263" />
<glyph unicode="&#x2009;" horiz-adv-x="422" />
<glyph unicode="&#x200a;" horiz-adv-x="117" />
<glyph unicode="&#x2010;" horiz-adv-x="772" d="M0 760q0 43 29.5 72.5t72.5 29.5h394q43 0 72.5 -29.5t29.5 -72.5t-29.5 -72t-72.5 -29h-394q-43 0 -72.5 29t-29.5 72z" />
<glyph unicode="&#x2011;" horiz-adv-x="772" d="M0 760q0 43 29.5 72.5t72.5 29.5h394q43 0 72.5 -29.5t29.5 -72.5t-29.5 -72t-72.5 -29h-394q-43 0 -72.5 29t-29.5 72z" />
<glyph unicode="&#x2012;" horiz-adv-x="772" d="M0 760q0 43 29.5 72.5t72.5 29.5h394q43 0 72.5 -29.5t29.5 -72.5t-29.5 -72t-72.5 -29h-394q-43 0 -72.5 29t-29.5 72z" />
<glyph unicode="&#x2013;" horiz-adv-x="980" d="M168 668q0 43 29 72.5t73 29.5h394q43 0 72.5 -29.5t29.5 -72.5q0 -42 -30 -71.5t-72 -29.5h-394q-44 0 -73 29.5t-29 71.5z" />
<glyph unicode="&#x2014;" horiz-adv-x="1236" d="M211 854q0 44 29.5 73t72.5 29h580q43 0 72.5 -29t29.5 -73q0 -41 -29.5 -70.5t-72.5 -29.5h-580q-43 0 -72.5 29.5t-29.5 70.5z" />
<glyph unicode="&#x2018;" horiz-adv-x="468" d="M173 1537q-3 43 26 77q57 70 106 127q27 36 74.5 39.5t77.5 -27.5q31 -28 34 -69.5t-24 -77.5l-111 -129q-28 -32 -71.5 -35.5t-75.5 24.5q-33 28 -36 71z" />
<glyph unicode="&#x2019;" horiz-adv-x="342" d="M-23 1350.5q-4 42.5 25 76.5q66 76 107 127q27 34 74 38.5t77 -25.5q31 -28 34.5 -70.5t-22.5 -77.5l-110 -129q-28 -33 -72 -36t-76 26q-33 28 -37 70.5z" />
<glyph unicode="&#x201a;" horiz-adv-x="468" d="M-125 102q0 42 30 72.5t72 30.5h82q41 0 72 -29.5t31 -71.5v-161q0 -43 -31 -74t-72 -31q-44 0 -74 30.5t-30 74.5v59q-33 6 -56.5 35t-23.5 65z" />
<glyph unicode="&#x201c;" horiz-adv-x="468" d="M-33 1325v164q0 42 31.5 72t73.5 30q43 0 72.5 -29.5t29.5 -72.5v-59q34 -8 57 -36.5t23 -66.5q0 -40 -29.5 -71t-70.5 -31h-82q-42 0 -73.5 29.5t-31.5 70.5zM242 1327v164q0 42 31 72t71 30q43 0 72.5 -29.5t29.5 -72.5v-61q34 -6 57 -34.5t23 -66.5q0 -41 -29 -71.5 t-71 -30.5h-82q-40 0 -71 29.5t-31 70.5z" />
<glyph unicode="&#x201d;" horiz-adv-x="663" d="M0 1491q0 40 30 71t72 31h82q40 0 71.5 -29.5t31.5 -70.5v-164q0 -42 -31 -72t-72 -30q-43 0 -72.5 29.5t-29.5 72.5v60q-35 8 -58.5 36.5t-23.5 65.5zM317 1493q0 40 30 71t71 31h82q41 0 71.5 -29.5t30.5 -70.5v-164q0 -42 -30 -72t-72 -30q-43 0 -73 29.5t-30 72.5v60 q-35 8 -57.5 36t-22.5 66z" />
<glyph unicode="&#x201e;" horiz-adv-x="468" d="M-119 102q0 42 30.5 72.5t72.5 30.5h82q41 0 71.5 -29.5t30.5 -71.5v-161q0 -43 -31 -74t-71 -31q-43 0 -73 30.5t-30 74.5v59q-34 6 -58 35t-24 65zM156 104q0 42 29.5 72.5t70.5 30.5h82q41 0 71.5 -30t30.5 -71v-161q0 -44 -30 -74.5t-72 -30.5q-43 0 -72.5 30.5 t-29.5 74.5v59q-35 6 -57.5 34t-22.5 66z" />
<glyph unicode="&#x2022;" horiz-adv-x="681" d="M55 707q0 44 19 96q28 93 141 151q63 23 115 23q58 0 108 -23h-2q72 -33 116 -94.5t44 -150.5q0 -53 -21 -103l3 2q-15 -49 -53 -89t-87 -60q-46 -21 -106 -21q-70 0 -115 23h4q-48 17 -88 57q-38 38 -57 88v-2q-21 54 -21 103z" />
<glyph unicode="&#x2026;" horiz-adv-x="747" d="M-23 102v66q0 43 30.5 72.5t74.5 29.5q40 0 71 -30t31 -72v-66q0 -40 -31 -71t-71 -31q-44 0 -74.5 31t-30.5 71zM203 102v66q0 43 29.5 72.5t72.5 29.5q42 0 72.5 -30t30.5 -72v-66q0 -40 -31 -71t-72 -31q-42 0 -72 31t-30 71zM428 102v66q0 43 29 72.5t73 29.5 q41 0 72 -30t31 -72v-66q0 -40 -31.5 -71t-71.5 -31q-43 0 -72.5 30.5t-29.5 71.5z" />
<glyph unicode="&#x202f;" horiz-adv-x="422" />
<glyph unicode="&#x2039;" horiz-adv-x="598" d="M-10 600l286 346h336l-290 -346l290 -348h-336z" />
<glyph unicode="&#x203a;" horiz-adv-x="598" d="M-32 360q5 39 36 62l236 176q-10 7 -101 73t-137 97q-28 26 -32 64.5t16 70.5q23 29 65 35t74 -16q58 -41 170.5 -124t163.5 -120q41 -35 41 -80q0 -51 -39 -78l-336 -252q-32 -25 -74 -18t-65 39t-18 71z" />
<glyph unicode="&#x205f;" horiz-adv-x="527" />
<glyph unicode="&#x20ac;" horiz-adv-x="1488" d="M-59 666q0 35 31.5 64.5t74.5 29.5h109v35l-2 8l2 14h-109q-44 0 -75 30t-31 71q0 49 30 77.5t76 28.5h143q74 247 283.5 405t474.5 158q126 0 281 -51q33 -24 49 -63t0 -76v10q-10 -40 -46 -58.5t-77 -7.5q-129 37 -207 37q-172 0 -319 -99.5t-223 -254.5h618 q40 0 70 -29t30 -77q0 -40 -31 -70.5t-69 -30.5h-670v-22q0 -13 -1.5 -18t1.5 -17h670q37 0 68.5 -30t31.5 -64q0 -43 -31 -75t-69 -32h-618q69 -166 213.5 -262t328.5 -96q110 0 203 37h-2q38 18 76.5 -1.5t52.5 -56.5q14 -35 -5 -73t-56 -58q-136 -49 -269 -49 q-266 0 -475.5 157t-282.5 402h-143q-44 0 -75 31.5t-31 75.5z" />
<glyph unicode="&#x2122;" horiz-adv-x="1579" d="M-33 1495v145h379v-145h-113v-299h-151v299h-115zM291 1196v444h170l53 -167q14 43 49 167h166v-444h-147v39q-2 -11 -11 -39h-131l-2 41v-41h-147z" />
<glyph unicode="&#xe000;" horiz-adv-x="1064" d="M0 0v1065h1065v-1065h-1065z" />
</font>
</defs>
</svg>
